<svg xmlns="http://www.w3.org/2000/svg" width="112" height="111.999" viewBox="0 0 112 111.999">
  <path id="iMac" d="M340,918H298c-.038,0-3.828-.016-4.405-1.411-.23-.555.075-1.258.905-2.089,3.462-3.462,10.429-6.964,10.5-7V897h28v10.5l0,0c.289.146,7.112,3.615,10.5,7,.831.831,1.135,1.533.905,2.089C343.827,917.983,340.038,918,340,918Zm28-24.5H270a7.008,7.008,0,0,1-7-7V813a7.008,7.008,0,0,1,7-7h98a7.008,7.008,0,0,1,7,7v73.5A7.008,7.008,0,0,1,368,893.5ZM277,813a7.008,7.008,0,0,0-7,7v49a7.008,7.008,0,0,0,7,7h84a7.008,7.008,0,0,0,7-7V820a7.008,7.008,0,0,0-7-7Z" transform="translate(-263 -806)" fill="#7b7b7b" opacity="0.4"/>
</svg>
