<svg xmlns="http://www.w3.org/2000/svg" width="126" height="111" viewBox="0 0 126 111">
  <path id="photo" d="M977.874,917A7.911,7.911,0,0,1,970,909.071V813.928A7.911,7.911,0,0,1,977.874,806h110.25a7.911,7.911,0,0,1,7.875,7.928v95.143a7.911,7.911,0,0,1-7.875,7.928Zm3.938-91.179v71.357a7.911,7.911,0,0,0,7.875,7.929h86.625a7.911,7.911,0,0,0,7.875-7.929V825.82a7.911,7.911,0,0,0-7.875-7.928H989.687A7.911,7.911,0,0,0,981.812,825.82Zm3.938,71.357,23.625-31.714,15.75,19.822h3.938l27.563-55.5,23.625,67.393Zm7.88-57.478a13.781,13.781,0,1,1,13.78,13.88A13.83,13.83,0,0,1,993.63,839.7Z" transform="translate(-969.999 -806)" fill="#7b7b7b" opacity="0.4"/>
</svg>
