<svg xmlns="http://www.w3.org/2000/svg" xmlns:xlink="http://www.w3.org/1999/xlink" width="118" height="119" viewBox="0 0 118 119">
  <defs>
    <pattern id="pattern" preserveAspectRatio="none" width="100%" height="100%" viewBox="0 0 0 0">
      <image/>
    </pattern>
    <clipPath id="clip-path">
      <path d="M402.7,6447A13.721,13.721,0,0,1,389,6433.285a2.32,2.32,0,1,1,4.64,0,9.071,9.071,0,0,0,9.054,9.067H493.3a9.07,9.07,0,0,0,9.054-9.067v-36.657a2.321,2.321,0,1,1,4.642,0v36.657A13.721,13.721,0,0,1,493.3,6447Zm75.715-19.21a2.322,2.322,0,0,1-2.32-2.323V6409.6a2.322,2.322,0,0,1,2.32-2.325h15.842a2.325,2.325,0,0,1,2.322,2.325v15.866a2.322,2.322,0,0,1-2.32,2.323Zm2.322-4.648h11.2v-11.217h-11.2ZM457.4,6427.11l-6.19-6.2a2.323,2.323,0,1,1,3.284-3.286l4.547,4.553,8.012-8.025a2.322,2.322,0,0,1,3.281,3.288l-9.653,9.669a2.321,2.321,0,0,1-3.281,0Zm-30.1.679a2.323,2.323,0,0,1-2.322-2.323V6409.6a2.324,2.324,0,0,1,2.322-2.325h15.843a2.322,2.322,0,0,1,2.32,2.325v15.866a2.322,2.322,0,0,1-2.32,2.323Zm2.32-4.648h11.2v-11.217h-11.2Zm-27.875,4.648a2.323,2.323,0,0,1-2.322-2.323V6409.6a2.324,2.324,0,0,1,2.322-2.325h15.842a2.322,2.322,0,0,1,2.32,2.325v15.866a2.322,2.322,0,0,1-2.32,2.323Zm2.32-4.648h11.2v-11.217h-11.2Zm-15.067.846a2.32,2.32,0,1,1,2.32,2.325A2.326,2.326,0,0,1,389,6423.987Zm0-9.3v-65.319a13.72,13.72,0,0,1,13.695-13.714h14.169v-5.333a2.321,2.321,0,1,1,4.642,0v5.333h24.173v-5.333a2.321,2.321,0,1,1,4.642,0v5.333h24.173v-5.333a2.321,2.321,0,1,1,4.642,0v5.333H493.3a13.72,13.72,0,0,1,13.7,13.714v28.663a2.321,2.321,0,1,1-4.642,0v-6.974H393.641v43.63a2.32,2.32,0,1,1-4.64,0Zm4.64-65.319v17.041H502.358v-17.041a9.07,9.07,0,0,0-9.054-9.066H479.135v4.458a8.892,8.892,0,1,1-4.642,0v-4.458H450.321v4.458a8.892,8.892,0,1,1-4.642,0v-4.458H421.506v4.458a8.892,8.892,0,1,1-4.64,0v-4.458H402.7A9.071,9.071,0,0,0,393.641,6349.371Zm78.922,3.988a4.25,4.25,0,1,0,6.572-3.563v3.563a2.321,2.321,0,1,1-4.642,0V6349.8A4.256,4.256,0,0,0,472.563,6353.359Zm-28.815,0a4.251,4.251,0,1,0,6.572-3.563v3.563a2.321,2.321,0,1,1-4.642,0V6349.8A4.258,4.258,0,0,0,443.748,6353.359Zm-28.813,0a4.25,4.25,0,1,0,6.571-3.563v3.563a2.321,2.321,0,1,1-4.642,0V6349.8A4.257,4.257,0,0,0,414.935,6353.359Zm63.475,47.933a2.322,2.322,0,0,1-2.32-2.323V6383.1a2.322,2.322,0,0,1,2.32-2.325h15.842a2.322,2.322,0,0,1,2.32,2.325h0v15.866a2.322,2.322,0,0,1-2.32,2.323Zm2.322-4.648h11.2v-11.217h-11.2Zm-27.878,4.648a2.323,2.323,0,0,1-2.32-2.323V6383.1a2.323,2.323,0,0,1,2.32-2.325H468.7a2.323,2.323,0,0,1,2.322,2.325v15.866a2.323,2.323,0,0,1-2.322,2.323Zm2.322-4.648h11.2v-11.217h-11.2Zm-27.875,4.648a2.323,2.323,0,0,1-2.322-2.323V6383.1a2.323,2.323,0,0,1,2.322-2.325h15.843a2.322,2.322,0,0,1,2.32,2.325v15.866a2.322,2.322,0,0,1-2.32,2.323Zm2.32-4.648h11.2v-11.217h-11.2Zm-27.875,4.648a2.323,2.323,0,0,1-2.322-2.323V6383.1a2.323,2.323,0,0,1,2.322-2.325h15.842a2.322,2.322,0,0,1,2.32,2.325v15.866a2.322,2.322,0,0,1-2.32,2.323Zm2.32-4.648h11.2v-11.217h-11.2Zm98.291-9.313a2.321,2.321,0,1,1,2.32,2.325A2.326,2.326,0,0,1,502.358,6387.331Z" fill="none"/>
    </clipPath>
  </defs>
  <g id="Vector_Smart_Object5_Double_Click_to_Edit_" data-name="Vector Smart Object5 (Double Click to Edit)" transform="translate(-389 -6328)">
    <g id="Vector_Smart_Object5_Double_Click_to_Edit_2" data-name="Vector Smart Object5 (Double Click to Edit)" transform="translate(389 6328)">
      <g id="Vector_Smart_Object" data-name="Vector Smart Object" transform="translate(-9.979 -38.556)">
        <g id="Group_11" data-name="Group 11">
          <path id="Path_21" data-name="Path 21" d="M12.3,127.572a2.322,2.322,0,0,0,2.321-2.324V81.617H123.338V88.59a2.321,2.321,0,1,0,4.641,0V59.928a13.72,13.72,0,0,0-13.7-13.715h-14.17V40.881a2.321,2.321,0,1,0-4.641,0v5.333H71.3V40.881a2.321,2.321,0,1,0-4.641,0v5.333H42.485V40.881a2.321,2.321,0,1,0-4.641,0v5.333H23.674a13.72,13.72,0,0,0-13.7,13.715v65.32a2.322,2.322,0,0,0,2.321,2.324Zm11.374-76.71h14.17v4.457a8.892,8.892,0,1,0,4.641,0V50.862H66.658v4.457a8.892,8.892,0,1,0,4.641,0V50.862H95.473v4.457a8.892,8.892,0,1,0,4.641,0V50.862h14.17a9.07,9.07,0,0,1,9.054,9.066v17.04H14.621V59.928a9.07,9.07,0,0,1,9.054-9.066Zm16.49,15.377a2.322,2.322,0,0,0,2.321-2.324V60.353a4.25,4.25,0,1,1-4.641,0v3.563a2.323,2.323,0,0,0,2.321,2.323Zm28.815,0A2.322,2.322,0,0,0,71.3,63.915V60.353a4.251,4.251,0,1,1-4.641,0v3.563a2.322,2.322,0,0,0,2.321,2.323Zm28.814,0a2.322,2.322,0,0,0,2.321-2.324V60.353a4.251,4.251,0,1,1-4.641,0v3.562a2.322,2.322,0,0,0,2.321,2.324Zm0,0" fill-rule="evenodd"/>
          <path id="Path_22" data-name="Path 22" d="M125.658,104.859a2.322,2.322,0,0,0-2.321,2.324v36.658a9.07,9.07,0,0,1-9.054,9.066H23.674a9.07,9.07,0,0,1-9.054-9.066,2.321,2.321,0,1,0-4.641,0,13.721,13.721,0,0,0,13.7,13.715h90.61a13.721,13.721,0,0,0,13.7-13.715V107.184a2.323,2.323,0,0,0-2.321-2.324Zm0,0" fill-rule="evenodd"/>
          <path id="Path_23" data-name="Path 23" d="M40.889,93.659a2.323,2.323,0,0,0-2.321-2.324H22.726a2.322,2.322,0,0,0-2.321,2.324v15.867a2.323,2.323,0,0,0,2.321,2.324H38.568a2.323,2.323,0,0,0,2.321-2.324ZM36.248,107.2h-11.2V95.983h11.2Zm0,0" fill-rule="evenodd"/>
          <path id="Path_24" data-name="Path 24" d="M38.568,117.832H22.726a2.322,2.322,0,0,0-2.321,2.324v15.867a2.322,2.322,0,0,0,2.321,2.324H38.568a2.323,2.323,0,0,0,2.321-2.324V120.157a2.323,2.323,0,0,0-2.321-2.324ZM36.248,133.7h-11.2V122.481h11.2Zm0,0" fill-rule="evenodd"/>
          <path id="Path_25" data-name="Path 25" d="M64.123,117.832H48.28a2.322,2.322,0,0,0-2.321,2.324v15.867a2.322,2.322,0,0,0,2.321,2.324H64.123a2.322,2.322,0,0,0,2.321-2.324V120.157a2.322,2.322,0,0,0-2.321-2.324ZM61.8,133.7H50.6V122.481H61.8Zm0,0" fill-rule="evenodd"/>
          <path id="Path_26" data-name="Path 26" d="M73.834,111.849H89.677A2.323,2.323,0,0,0,92,109.525V93.659a2.322,2.322,0,0,0-2.321-2.324H73.834a2.323,2.323,0,0,0-2.321,2.324v15.867a2.324,2.324,0,0,0,2.321,2.324Zm2.321-15.867h11.2V107.2h-11.2Zm0,0" fill-rule="evenodd"/>
          <path id="Path_27" data-name="Path 27" d="M117.552,93.659a2.322,2.322,0,0,0-2.321-2.324H99.39a2.322,2.322,0,0,0-2.321,2.324v15.867a2.323,2.323,0,0,0,2.321,2.324h15.842a2.323,2.323,0,0,0,2.321-2.324V93.659ZM112.911,107.2h-11.2V95.983h11.2V107.2Zm0,0" fill-rule="evenodd"/>
          <path id="Path_28" data-name="Path 28" d="M115.231,117.832H99.39a2.322,2.322,0,0,0-2.321,2.324v15.867a2.322,2.322,0,0,0,2.321,2.324h15.842a2.322,2.322,0,0,0,2.321-2.324V120.157a2.324,2.324,0,0,0-2.322-2.324ZM112.911,133.7h-11.2V122.481h11.2V133.7Zm0,0" fill-rule="evenodd"/>
          <path id="Path_29" data-name="Path 29" d="M66.444,93.659a2.322,2.322,0,0,0-2.321-2.324H48.28a2.322,2.322,0,0,0-2.321,2.324v15.867a2.323,2.323,0,0,0,2.321,2.324H64.123a2.323,2.323,0,0,0,2.321-2.324ZM61.8,107.2H50.6V95.983H61.8Zm0,0" fill-rule="evenodd"/>
          <path id="Path_30" data-name="Path 30" d="M72.194,131.468l6.189,6.2a2.317,2.317,0,0,0,3.282,0L91.318,128a2.322,2.322,0,1,0-3.282-3.286l-8.013,8.025-4.547-4.554a2.323,2.323,0,0,0-3.283,3.287Zm0,0" fill-rule="evenodd"/>
          <path id="Path_31" data-name="Path 31" d="M12.3,136.869a2.324,2.324,0,1,0-2.321-2.324,2.327,2.327,0,0,0,2.321,2.324Zm0,0" fill-rule="evenodd"/>
          <path id="Path_32" data-name="Path 32" d="M125.658,95.563a2.324,2.324,0,1,0,2.321,2.324,2.326,2.326,0,0,0-2.321-2.324Zm0,0" fill-rule="evenodd"/>
        </g>
      </g>
      <rect id="Place_Your_Design_Here" data-name="Place Your Design Here" fill="url(#pattern)"/>
    </g>
    <g id="Clip" clip-path="url(#clip-path)">
      <g id="Color_" data-name="Color      " transform="translate(1)">
        <rect id="Color_2" data-name="Color " width="1440" height="8000" fill="#00c0ff"/>
      </g>
    </g>
  </g>
</svg>
