<svg xmlns="http://www.w3.org/2000/svg" xmlns:xlink="http://www.w3.org/1999/xlink" width="69" height="108" viewBox="0 0 69 108">
  <defs>
    <clipPath id="clip-path">
      <path d="M12.845,108C5.763,108,0,102.785,0,96.374V82.809A2.228,2.228,0,0,1,2.33,80.7a2.228,2.228,0,0,1,2.331,2.11v4.218H64.339V42.066a2.342,2.342,0,0,1,4.661,0V96.374C69,102.785,63.239,108,56.156,108ZM4.661,96.374c0,4.084,3.671,7.408,8.184,7.408H56.156c4.514,0,8.184-3.324,8.184-7.408V91.247H4.661Zm25.855,3.25a2.12,2.12,0,1,1,0-4.219h7.968a2.12,2.12,0,1,1,0,4.219ZM8.549,56.7c-.005-.033-.01-.066-.013-.1A21.274,21.274,0,0,1,8.377,54C8.377,40.963,20.1,30.355,34.5,30.355S60.623,40.963,60.623,54a21.7,21.7,0,0,1-.159,2.606c0,.031-.007.06-.012.09C58.969,68.469,47.9,77.645,34.5,77.645S10.035,68.472,8.549,56.7ZM34.5,73.426c10.111,0,18.609-6.361,20.871-14.893H48.03A2.353,2.353,0,0,1,45.9,57.281L42.084,49.51,35.047,64.618a2.347,2.347,0,0,1-2.14,1.29H32.9a2.347,2.347,0,0,1-2.141-1.278L25.37,53.26l-2.1,4.06a2.361,2.361,0,0,1-2.111,1.213H13.63C15.891,67.065,24.39,73.426,34.5,73.426ZM25.505,46a2.345,2.345,0,0,1,2.1,1.278l5.274,11.129,7-15.026A2.345,2.345,0,0,1,42,42.092h.022a2.353,2.353,0,0,1,2.129,1.252l5.388,10.971h6.412c0-.105,0-.21,0-.315,0-10.712-9.627-19.426-21.462-19.426S13.037,43.288,13.037,54c0,.105,0,.21.005.315h6.633l3.68-7.1A2.36,2.36,0,0,1,25.465,46ZM0,74.371a2.232,2.232,0,0,1,2.33-2.11,2.12,2.12,0,1,1,0,4.218A2.232,2.232,0,0,1,0,74.371Zm0-8.437V11.626C0,5.216,5.763,0,12.845,0H56.156C63.239,0,69,5.216,69,11.626V25.191a2.342,2.342,0,0,1-4.661,0V20.972H4.661V65.934A2.228,2.228,0,0,1,2.33,68.043,2.228,2.228,0,0,1,0,65.934ZM4.661,11.626v5.127H64.339V11.626c0-4.084-3.67-7.408-8.183-7.408H12.845C8.332,4.218,4.661,7.542,4.661,11.626Zm59.678,22a2.342,2.342,0,1,1,2.33,2.11A2.232,2.232,0,0,1,64.339,33.629ZM23.9,12.6a2.229,2.229,0,0,1-2.331-2.11A2.229,2.229,0,0,1,23.9,8.376H45.1a2.229,2.229,0,0,1,2.331,2.11A2.229,2.229,0,0,1,45.1,12.6Z" transform="translate(207 3468)" fill="none"/>
    </clipPath>
  </defs>
  <g id="Clip" transform="translate(-207 -3468)" clip-path="url(#clip-path)">
    <g id="Color_" data-name="Color " transform="translate(-2 369)">
      <rect id="Color_2" data-name="Color " width="1440" height="7260.001" transform="translate(0 0)" fill="#00c0ff"/>
    </g>
  </g>
</svg>
