<svg xmlns="http://www.w3.org/2000/svg" width="33" height="32" viewBox="0 0 33 32">
  <g id="Facebook_Icon" data-name="Facebook Icon" transform="translate(0)">
    <g id="Facebook_Icon-2" data-name="Facebook Icon" transform="translate(-148.058 -143.571)">
      <path id="Path_8" data-name="Path 8" d="M164.558,143.572a16.007,16.007,0,1,0,16.5,16A16.255,16.255,0,0,0,164.558,143.572Zm4.837,9.121a.26.26,0,0,1-.263.255h-2.1a.918.918,0,0,0-.932.9v2.129h2.983a.259.259,0,0,1,.262.277l-.262,3a.26.26,0,0,1-.262.234H166.1v9.959a.259.259,0,0,1-.263.255h-3.753a.26.26,0,0,1-.263-.255v-9.959h-1.876a.259.259,0,0,1-.263-.255v-3a.26.26,0,0,1,.263-.255h1.876v-2.893a3.709,3.709,0,0,1,3.765-3.651h3.543a.26.26,0,0,1,.263.255Z" fill="#333033"/>
    </g>
  </g>
</svg>
