<svg xmlns="http://www.w3.org/2000/svg" xmlns:xlink="http://www.w3.org/1999/xlink" width="118" height="118.001" viewBox="0 0 118 118.001">
  <defs>
    <clipPath id="clip-path">
      <rect id="Rectangle_1" data-name="Rectangle 1" width="118" height="118" transform="translate(9.449 38.232)" fill="none"/>
    </clipPath>
    <pattern id="pattern" preserveAspectRatio="none" width="100%" height="100%" viewBox="0 0 0 0">
      <image/>
    </pattern>
    <clipPath id="clip-path-2">
      <path d="M934.281,6863.72A59,59,0,1,1,976,6881,58.615,58.615,0,0,1,934.281,6863.72Zm3.259-3.259a54.385,54.385,0,0,0,75.255,1.592l-4.7-4.7q-.414.275-.846.544c-5.542,3.426-13.271,5.876-21.768,6.9a2.19,2.19,0,0,1-.28.018,2.3,2.3,0,0,1-.275-4.592c7.813-.947,14.851-3.15,19.832-6.21l-12.444-12.444a73.191,73.191,0,0,1-15.007,1.744l-10.993,9.463a8.111,8.111,0,0,1-5.322,1.976c-.209,0-.42-.008-.63-.022a8.135,8.135,0,0,1-5.592-2.816L942.5,6837.657a11.779,11.779,0,0,0-2.52,6.6c0,3.4,2.556,6.854,7.2,9.724,4.986,3.081,12.052,5.3,19.9,6.25a2.3,2.3,0,0,1-.273,4.592,2.237,2.237,0,0,1-.281-.018c-8.495-1.027-16.226-3.478-21.766-6.9-6.053-3.741-9.386-8.586-9.386-13.645,0-3.319,1.4-6.806,4.051-10.175l-1.43-1.66a8.2,8.2,0,0,1,.435-11.146,13.127,13.127,0,0,1-3.057-8.179c0-6.616,3.863-12.8,10.919-17.552l-10.337-10.337A54.454,54.454,0,0,0,937.54,6860.461Zm66.766-65.822c7.951,4.861,12.328,11.415,12.328,18.458a13.28,13.28,0,0,1-3.331,8.519,10.961,10.961,0,0,1,.48,3.143,11.3,11.3,0,0,1-2.913,7.343c3.734,3.929,5.764,8.182,5.764,12.154,0,3.623-1.71,7.136-4.9,10.213l4.324,4.326a54.388,54.388,0,0,0-76.847-76.848l11.185,11.186A56.837,56.837,0,0,1,976,6787.425C986.641,6787.425,996.693,6789.988,1004.305,6794.639Zm-2.1,43.646a44.265,44.265,0,0,1-4.78,1.877l11.05,11.052c2.314-2.2,3.552-4.593,3.552-6.958,0-2.76-1.641-5.984-4.55-9.033A30.73,30.73,0,0,1,1002.2,6838.284Zm-61.571-11.47a3.563,3.563,0,0,0,.85,2.6l16.784,19.5a3.591,3.591,0,0,0,5.043.376l17.7-15.233q-2.456.15-5,.154c-14.6,0-27.18-3.81-34.327-9.664A3.554,3.554,0,0,0,940.631,6826.814Zm42.4,11.579q2.764-.261,5.374-.727l-2.095-2.095Zm7.16-5.46,3.538,3.539a43.046,43.046,0,0,0,6.533-2.368c5.255-2.437,8.429-5.545,8.859-8.628C1004.468,6828.868,997.91,6831.482,990.191,6832.933ZM939.976,6813.1c0,4.038,3.621,8.132,9.937,11.23,6.928,3.4,16.193,5.274,26.087,5.274q2.134,0,4.226-.118l-30.609-30.609C943.394,6802.822,939.976,6807.854,939.976,6813.1Zm13.86-16.52,32.336,32.335c.49-.067.977-.138,1.461-.216a2.073,2.073,0,0,1,.288-.048,51.515,51.515,0,0,0,14.164-4.32c6.315-3.1,9.938-7.191,9.938-11.23,0-5.377-3.6-10.534-10.123-14.525-6.9-4.215-16.1-6.538-25.9-6.538A53.086,53.086,0,0,0,953.836,6796.578Zm19.859,66.452a2.3,2.3,0,1,1,2.3,2.3A2.309,2.309,0,0,1,973.7,6863.029Z" fill="none"/>
    </clipPath>
  </defs>
  <g id="Vector_Smart_Object6_Double_Click_to_Edit_" data-name="Vector Smart Object6 (Double Click to Edit)" transform="translate(-917 -6763)">
    <g id="Vector_Smart_Object6_Double_Click_to_Edit_2" data-name="Vector Smart Object6 (Double Click to Edit)" transform="translate(917 6763)">
      <g id="Vector_Smart_Object" data-name="Vector Smart Object" transform="translate(-9.449 -38.232)">
        <g id="Group_7" data-name="Group 7">
          <g id="Group_6" data-name="Group 6">
            <g id="Group_5" data-name="Group 5" clip-path="url(#clip-path)">
              <path id="Path_17" data-name="Path 17" d="M110.169,55.513a59,59,0,1,0,17.281,41.719,58.615,58.615,0,0,0-17.281-41.719Zm-3.259,3.259a54.457,54.457,0,0,1,1.593,75.254l-4.324-4.325c3.194-3.077,4.9-6.59,4.9-10.213,0-3.973-2.031-8.226-5.764-12.154a11.31,11.31,0,0,0,2.913-7.343,10.963,10.963,0,0,0-.481-3.143,13.283,13.283,0,0,0,3.332-8.519c0-7.044-4.379-13.6-12.329-18.458-7.612-4.652-17.663-7.214-28.3-7.214a56.818,56.818,0,0,0-25.608,5.708L31.655,57.18a54.386,54.386,0,0,1,75.254,1.593ZM89.87,115.395a44.58,44.58,0,0,0,4.781-1.877,30.728,30.728,0,0,0,5.272-3.063c2.911,3.05,4.551,6.274,4.551,9.034,0,2.364-1.238,4.754-3.552,6.956ZM94.536,99.56a51.518,51.518,0,0,1-14.165,4.32,2.282,2.282,0,0,0-.29.049q-.724.116-1.459.217L46.285,71.81a53.074,53.074,0,0,1,22.164-4.543c9.8,0,19,2.322,25.9,6.538,6.528,3.99,10.124,9.148,10.124,14.525,0,4.039-3.622,8.131-9.937,11.23Zm-21.862,5.157q-2.088.115-4.225.116c-9.893,0-19.158-1.873-26.087-5.273-6.316-3.1-9.937-7.192-9.937-11.23,0-5.242,3.418-10.276,9.64-14.222Zm-38.745-.07a3.588,3.588,0,0,1,.192-4.867c7.148,5.853,19.724,9.663,34.328,9.663q2.545,0,5-.153l-17.7,15.233a3.592,3.592,0,0,1-5.042-.377ZM78.76,110.8l2.095,2.095q-2.606.462-5.374.727Zm3.881-2.638c7.719-1.451,14.276-4.066,18.93-7.456-.43,3.081-3.6,6.189-8.86,8.627a43,43,0,0,1-6.533,2.366ZM29.989,135.693A54.456,54.456,0,0,1,28.4,60.439L38.734,70.777C31.678,75.531,27.816,81.715,27.816,88.33a13.125,13.125,0,0,0,3.056,8.179,8.2,8.2,0,0,0-.437,11.145l1.43,1.66c-2.655,3.37-4.05,6.856-4.05,10.176,0,5.058,3.333,9.9,9.384,13.644,5.541,3.425,13.272,5.877,21.768,6.9a2.272,2.272,0,0,0,.28.017,2.3,2.3,0,0,0,.274-4.593c-7.846-.949-14.913-3.168-19.9-6.25-4.642-2.869-7.2-6.323-7.2-9.723a11.776,11.776,0,0,1,2.519-6.6L47.22,127.152a8.129,8.129,0,0,0,5.592,2.816c.211.015.42.023.628.023a8.115,8.115,0,0,0,5.322-1.975l10.995-9.464a73.149,73.149,0,0,0,15.007-1.744l12.443,12.443c-4.981,3.06-12.018,5.265-19.831,6.21a2.3,2.3,0,0,0,.274,4.593,2.272,2.272,0,0,0,.28-.017c8.5-1.028,16.226-3.479,21.768-6.9.289-.179.57-.361.847-.545l4.7,4.7a54.386,54.386,0,0,1-75.255-1.593Zm0,0" fill-rule="evenodd"/>
            </g>
          </g>
          <path id="Path_18" data-name="Path 18" d="M68.449,135.957a2.3,2.3,0,1,0,2.3,2.3,2.309,2.309,0,0,0-2.3-2.3Zm0,0" fill-rule="evenodd"/>
        </g>
      </g>
      <rect id="Place_Your_Design_Here" data-name="Place Your Design Here" fill="url(#pattern)"/>
    </g>
    <g id="Clip" clip-path="url(#clip-path-2)">
      <g id="Color_" data-name="Color      " transform="translate(1)">
        <rect id="Color_2" data-name="Color " width="1440" height="8000" fill="#00c0ff"/>
      </g>
    </g>
  </g>
</svg>
