<svg xmlns="http://www.w3.org/2000/svg" width="33" height="32" viewBox="0 0 33 32">
  <g id="Instagram_Icon" data-name="Instagram Icon" transform="translate(-148.058 -143.571)">
    <g id="Group_2" data-name="Group 2">
      <path id="Path_5" data-name="Path 5" d="M164.558,143.572a16.007,16.007,0,1,0,16.5,16A16.255,16.255,0,0,0,164.558,143.572ZM175.542,163.8a6.478,6.478,0,0,1-6.567,6.368h-8.729a6.477,6.477,0,0,1-6.568-6.368v-8.465a6.477,6.477,0,0,1,6.568-6.368h8.729a6.478,6.478,0,0,1,6.567,6.368Z" fill="#333033"/>
      <path id="Path_6" data-name="Path 6" d="M164.7,156.227a3.346,3.346,0,1,0,3.449,3.345A3.4,3.4,0,0,0,164.7,156.227Z" fill="#333033"/>
      <path id="Path_7" data-name="Path 7" d="M168.975,150.965h-8.729a4.449,4.449,0,0,0-4.511,4.374V163.8a4.449,4.449,0,0,0,4.511,4.374h8.729a4.449,4.449,0,0,0,4.511-4.374v-8.465A4.449,4.449,0,0,0,168.975,150.965ZM164.7,164.793a5.224,5.224,0,1,1,5.384-5.222A5.311,5.311,0,0,1,164.7,164.793Zm5.7-9.551A1.243,1.243,0,1,1,171.681,154,1.263,1.263,0,0,1,170.4,155.242Z" fill="#333033"/>
    </g>
  </g>
</svg>
