<svg xmlns="http://www.w3.org/2000/svg" width="33" height="32" viewBox="0 0 33 32">
  <g id="Snapchat_Icon" data-name="Snapchat Icon" transform="translate(-148.058 -143.571)">
    <path id="Path_1" data-name="Path 1" d="M164.558,143.572a16.007,16.007,0,1,0,16.5,16A16.255,16.255,0,0,0,164.558,143.572Zm11.5,21.842a1.64,1.64,0,0,1-.975.777,4.588,4.588,0,0,1-1.285.353.967.967,0,0,0-1.038.925c-.09.594-.274.679-.9.63-.148-.012-.295-.038-.441-.063a4.072,4.072,0,0,0-3.378.7,7.472,7.472,0,0,1-.627.416,4.806,4.806,0,0,1-5.26.189c-.488-.276-.951-.594-1.424-.894a3.2,3.2,0,0,0-1.284-.456,8.508,8.508,0,0,0-2.175.13c-.371.039-.73-.063-.751-.435-.051-.9-.617-1.117-1.4-1.2a4.059,4.059,0,0,1-1.062-.32,1.547,1.547,0,0,1-.89-.748v-.347a.951.951,0,0,1,.539-.351,6.084,6.084,0,0,0,4.08-3.045c.8-1.281.669-1.574-.8-2.078-.084-.029-.17-.052-.253-.085a3.161,3.161,0,0,1-.893-.482c-.657-.554-.269-1.352.506-1.533.566-.132,1.06.221,1.61.288.367.044.514-.076.469-.455a17.647,17.647,0,0,1-.066-2.941,4.96,4.96,0,0,1,2.647-4.22,6.858,6.858,0,0,1,7.165-.021,4.952,4.952,0,0,1,2.635,3.813,16.459,16.459,0,0,1-.009,3.329c-.039.482.063.57.554.459.61-.139,1.121-.444,1.755-.174a.94.94,0,0,1,.626.815.9.9,0,0,1-.346.634,3.612,3.612,0,0,1-1.031.524c-.276.108-.562.192-.831.314-.555.252-.714.585-.455,1.117a6.307,6.307,0,0,0,4.353,3.724,1.027,1.027,0,0,1,.627.367Z" fill="#333033"/>
  </g>
</svg>
