<svg xmlns="http://www.w3.org/2000/svg" width="33" height="32" viewBox="0 0 33 32">
  <g id="Twitter_Icon" data-name="Twitter Icon" transform="translate(-148.058 -143.571)">
    <path id="Path_4" data-name="Path 4" d="M164.558,143.572a16.007,16.007,0,1,0,16.5,16A16.255,16.255,0,0,0,164.558,143.572Zm10.1,9.846a.465.465,0,0,1-.1.314,7.906,7.906,0,0,1-1.618,1.64c-.093.067-.248.138-.248.265a11.94,11.94,0,0,1-3.306,8.868,12.585,12.585,0,0,1-11.946,2.708,11.6,11.6,0,0,1-2.31-.9c-.244-.129-.484-.263-.72-.414-.06-.047-.1-.09-.053-.12s.089-.026.275,0a8.392,8.392,0,0,0,3.456-.429,5.334,5.334,0,0,0,2.275-1.17c.009-.013.018-.013.027-.026-.151-.034-.3-.034-.453-.06a4.435,4.435,0,0,1-3.332-2.706c-.044-.107,0-.164.116-.142a4.942,4.942,0,0,0,1.586-.047,2.571,2.571,0,0,1-.537-.159,4.189,4.189,0,0,1-2.648-3.322,2.38,2.38,0,0,1-.027-.465c.009-.108.058-.142.156-.082a4.374,4.374,0,0,0,1.617.439c-.182-.138-.351-.288-.515-.439a4.027,4.027,0,0,1-.724-4.869c.08-.116.133-.116.231-.008a13.169,13.169,0,0,0,8.38,4.136c.088.013.1,0,.084-.095a4.23,4.23,0,0,1,.044-1.7,4.08,4.08,0,0,1,.828-1.608,4.409,4.409,0,0,1,2.966-1.553h0c.045,0,.09-.013.135-.016a4.232,4.232,0,0,1,1.812.283,4.342,4.342,0,0,1,1.181.7,1.919,1.919,0,0,1,.213.211.166.166,0,0,0,.168.043,10.709,10.709,0,0,0,2.438-.905.12.12,0,0,1,.109-.009c.035.026.022.069,0,.1a3.627,3.627,0,0,1-.684,1.207c-.2.235-.683.816-1.013.87a8.582,8.582,0,0,0,2.053-.569c.083-.036.076-.052.076,0Z" fill="#333033"/>
  </g>
</svg>
