<svg xmlns="http://www.w3.org/2000/svg" xmlns:xlink="http://www.w3.org/1999/xlink" width="85.296" height="107.177" viewBox="0 0 85.296 107.177">
  <defs>
    <clipPath id="clip-path">
      <rect id="Rectangle_3" data-name="Rectangle 3" width="85.296" height="107.145" transform="translate(19.748 34.783)" fill="none"/>
    </clipPath>
    <pattern id="pattern" preserveAspectRatio="none" width="100%" height="100%" viewBox="0 0 0 0">
      <image/>
    </pattern>
    <clipPath id="clip-path-2">
      <path d="M1177.96,3580.969a2.1,2.1,0,0,1-1.327-.473,42.325,42.325,0,0,1-5.135-60.727,24.194,24.194,0,0,1-7.081-16.887c0-8.593,4.667-16.367,13.142-21.889a46.465,46.465,0,0,1,21.158-6.961h9.526a46.461,46.461,0,0,1,21.157,6.961c8.475,5.521,13.143,13.3,13.143,21.889a24.206,24.206,0,0,1-7.081,16.888,42.194,42.194,0,0,1,9.578,19.128,2.1,2.1,0,0,1-4.1.861,38.052,38.052,0,0,0-9.9-18.61,2.089,2.089,0,0,1,.089-2.99c4.724-4.348,7.222-9.63,7.222-15.277,0-7.133-3.992-13.661-11.242-18.384-6.422-4.185-14.812-6.488-23.627-6.488s-17.206,2.3-23.628,6.488c-7.25,4.723-11.241,11.252-11.241,18.384,0,5.646,2.5,10.929,7.222,15.277a2.09,2.09,0,0,1,.088,2.99,38.145,38.145,0,0,0,2.8,55.635h49.523a38.294,38.294,0,0,0,12.694-21.233,2.1,2.1,0,0,1,4.1.861,42.5,42.5,0,0,1-14.713,24.085,2.1,2.1,0,0,1-1.327.473Zm63.795-33.314a2.1,2.1,0,1,1,2.1,2.094A2.1,2.1,0,0,1,1241.754,3547.654Zm-24.677-35.718a38.5,38.5,0,0,0-27.2,0,2.11,2.11,0,0,1-1.744-.116c-.536-.291-1.057-.6-1.549-.92-3.575-2.33-5.543-5.177-5.543-8.018s1.968-5.688,5.543-8.017c4.4-2.868,10.4-4.447,16.893-4.447s12.49,1.579,16.892,4.447c3.575,2.329,5.543,5.176,5.543,8.017s-1.968,5.688-5.543,8.017c-.491.32-1.012.63-1.549.92a2.108,2.108,0,0,1-1.745.117Zm.549-4.257c.154-.094.305-.189.453-.284,2.281-1.486,3.641-3.172,3.641-4.512s-1.361-3.028-3.641-4.512c-3.728-2.43-8.913-3.768-14.6-3.768s-10.872,1.337-14.6,3.768c-2.281,1.484-3.642,3.172-3.642,4.512s1.362,3.027,3.642,4.512c.147.1.3.191.452.284a42.744,42.744,0,0,1,28.3,0Z" fill="none"/>
    </clipPath>
  </defs>
  <g id="Vector_Smart_Object3_Double_Click_to_Edit_" data-name="Vector Smart Object3 (Double Click to Edit)" transform="translate(-1160.822 -3474)">
    <g id="Vector_Smart_Object3_Double_Click_to_Edit_2" data-name="Vector Smart Object3 (Double Click to Edit)" transform="translate(1161 3474)">
      <g id="Vector_Smart_Object" data-name="Vector Smart Object" transform="translate(-19.926 -34.751)">
        <g id="Group_17" data-name="Group 17">
          <g id="Group_16" data-name="Group 16">
            <g id="Group_15" data-name="Group 15" clip-path="url(#clip-path)">
              <path id="Path_55" data-name="Path 55" d="M102.344,114.684A2.1,2.1,0,0,0,99.86,116.3a38.289,38.289,0,0,1-12.695,21.232H37.644a38.144,38.144,0,0,1-2.8-55.634,2.091,2.091,0,0,0-.088-2.99c-4.724-4.348-7.222-9.63-7.222-15.277,0-7.132,3.992-13.661,11.241-18.384C45.2,41.064,53.59,38.76,62.4,38.76s17.206,2.3,23.628,6.488C93.281,49.972,97.274,56.5,97.274,63.633c0,5.647-2.5,10.929-7.222,15.277a2.09,2.09,0,0,0-.089,2.99,38.054,38.054,0,0,1,9.9,18.61,2.1,2.1,0,0,0,4.1-.861,42.2,42.2,0,0,0-9.578-19.128,24.2,24.2,0,0,0,7.081-16.888c0-8.593-4.667-16.367-13.142-21.889-7.1-4.623-16.3-7.17-25.921-7.17S43.58,37.12,36.484,41.744c-8.474,5.522-13.141,13.3-13.141,21.889A24.191,24.191,0,0,0,30.423,80.52a42.325,42.325,0,0,0,5.136,60.727,2.1,2.1,0,0,0,1.326.473H87.925a2.1,2.1,0,0,0,1.326-.473,42.494,42.494,0,0,0,14.714-24.085,2.093,2.093,0,0,0-1.621-2.478Zm0,0" fill-rule="evenodd"/>
            </g>
          </g>
          <path id="Path_56" data-name="Path 56" d="M48.806,72.687a38.51,38.51,0,0,1,27.2,0,2.107,2.107,0,0,0,1.745-.117c.536-.29,1.057-.6,1.549-.92,3.575-2.328,5.543-5.176,5.543-8.017s-1.968-5.688-5.543-8.018c-4.4-2.868-10.4-4.447-16.892-4.447s-12.491,1.579-16.892,4.447c-3.575,2.329-5.543,5.176-5.543,8.017s1.968,5.688,5.543,8.018c.492.32,1.013.629,1.549.92a2.1,2.1,0,0,0,1.745.116Zm-4.643-9.054c0-1.34,1.361-3.027,3.642-4.512,3.728-2.429,8.912-3.767,14.6-3.767s10.872,1.338,14.6,3.767c2.281,1.485,3.641,3.172,3.641,4.512s-1.361,3.026-3.641,4.512c-.148.1-.3.192-.453.285a42.736,42.736,0,0,0-28.295,0c-.153-.094-.305-.188-.452-.285-2.281-1.486-3.642-3.172-3.642-4.512Zm0,0" fill-rule="evenodd"/>
          <path id="Path_57" data-name="Path 57" d="M102.777,106.313a2.093,2.093,0,1,0,2.1,2.093,2.1,2.1,0,0,0-2.1-2.093Zm0,0" fill-rule="evenodd"/>
        </g>
      </g>
      <rect id="Place_Your_Design_Here" data-name="Place Your Design Here" fill="url(#pattern)"/>
    </g>
    <g id="Clip" clip-path="url(#clip-path-2)">
      <g id="Color_" data-name="Color " transform="translate(-2 53)">
        <rect id="Color_2" data-name="Color " width="1440" height="8000" fill="#00c0ff"/>
      </g>
    </g>
  </g>
</svg>
