<svg xmlns="http://www.w3.org/2000/svg" xmlns:xlink="http://www.w3.org/1999/xlink" width="118.001" height="120" viewBox="0 0 118.001 120">
  <defs>
    <pattern id="pattern" preserveAspectRatio="none" width="100%" height="100%" viewBox="0 0 0 0">
      <image/>
    </pattern>
    <clipPath id="clip-path">
      <path d="M944.158,6028a2.347,2.347,0,0,1-2.157-1.42c-.1-.229-2.44-5.7-5.109-13.648a2.346,2.346,0,0,1,4.449-1.49c1.826,5.433,3.525,9.754,4.386,11.873h29.927v-17.207a15.782,15.782,0,0,1-8.127-3.074l-33.365-25.6c-.008.775.009,1.559.062,2.348a94.328,94.328,0,0,0,2.1,13.86,2.347,2.347,0,0,1-4.584,1.006,98.788,98.788,0,0,1-2.2-14.56,36.472,36.472,0,0,1,.275-7.372c0-.066.014-.133.024-.2.918-6.461,3.4-12.381,6.177-17.87.006-.014.014-.027.02-.041,1.076-2.125,2.194-4.186,3.278-6.187,3.54-6.528,6.883-12.691,7.144-18.3.595-12.756-4.929-17.794-5.165-18a2.3,2.3,0,0,1-.7-2.581A2.363,2.363,0,0,1,942.83,5908h70.341a2.358,2.358,0,0,1,2.228,1.542,2.313,2.313,0,0,1-.708,2.587c-.219.193-5.744,5.229-5.148,17.987.26,5.609,3.6,11.773,7.144,18.3,1.086,2,2.2,4.062,3.278,6.188.006.014.014.027.02.042a59.765,59.765,0,0,1,6,16.72c.008.043.015.086.02.128a36.778,36.778,0,0,1,.46,8.59c-1.339,20.378-12.007,45.439-12.461,46.5a2.347,2.347,0,0,1-2.157,1.42Zm42.394-24.754a14.423,14.423,0,0,1-6.206,2.667v17.4h29.927c2.269-5.6,10.395-26.644,11.5-43.536a31.51,31.51,0,0,0,.027-3.583Zm-51.873-31.332,35.709,27.4c3.681,2.825,9.773,2.921,13.305.212l37.414-28.712a52.174,52.174,0,0,0-4.062-11.517c-9.357,6.538-23.671,10.384-39.045,10.384s-29.686-3.846-39.045-10.384A50.3,50.3,0,0,0,934.679,5971.914Zm16.467-41.579c-.31,6.679-3.9,13.3-7.7,20.314-.791,1.458-1.587,2.927-2.363,4.408C949.609,5961.3,963.221,5965,978,5965s28.391-3.691,36.921-9.938c-.775-1.481-1.57-2.95-2.362-4.408-3.8-7.012-7.395-13.635-7.7-20.314-.4-8.5,1.67-14.21,3.628-17.647H947.518C949.474,5916.125,951.542,5921.839,951.146,5930.335Zm-17.158,72.894a2.347,2.347,0,1,1,2.346,2.344A2.35,2.35,0,0,1,933.987,6003.229Zm41.666-51.489V5944.6a2.346,2.346,0,0,1,4.693,0v7.136a2.346,2.346,0,0,1-4.693,0Zm44.9-14.564-6.8-6.794a2.525,2.525,0,0,1-.552-.843,2.374,2.374,0,0,1,.552-2.472l6.8-6.794a2.345,2.345,0,0,1,3.318,3.314l-2.8,2.794h13.576a2.344,2.344,0,1,1,0,4.687h-13.578l2.8,2.794a2.344,2.344,0,0,1-3.318,3.313Zm-88.429,0a2.34,2.34,0,0,1,0-3.313l2.8-2.794H921.346a2.344,2.344,0,1,1,0-4.687h13.578l-2.8-2.794a2.345,2.345,0,0,1,3.319-3.314l6.8,6.794a2.329,2.329,0,0,1,0,3.317c-.009.011-6.8,6.792-6.8,6.792a2.349,2.349,0,0,1-3.319,0Z" fill="none"/>
    </clipPath>
  </defs>
  <g id="Vector_Smart_Object4_Double_Click_to_Edit_" data-name="Vector Smart Object4 (Double Click to Edit)" transform="translate(-919 -5908)">
    <g id="Vector_Smart_Object4_Double_Click_to_Edit_2" data-name="Vector Smart Object4 (Double Click to Edit)" transform="translate(919 5908)">
      <g id="Vector_Smart_Object" data-name="Vector Smart Object" transform="translate(-10.795 -38.88)">
        <g id="Group_13" data-name="Group 13">
          <path id="Path_45" data-name="Path 45" d="M117.775,102.247a59.758,59.758,0,0,0-6-16.721c-.008-.014-.014-.029-.021-.042-1.074-2.125-2.192-4.185-3.277-6.187-3.54-6.526-6.884-12.69-7.144-18.3-.595-12.758,4.929-17.794,5.147-17.987a2.313,2.313,0,0,0,.709-2.588,2.357,2.357,0,0,0-2.229-1.542H34.625a2.36,2.36,0,0,0-2.237,1.534,2.3,2.3,0,0,0,.7,2.58c.236.208,5.76,5.245,5.166,18-.261,5.609-3.6,11.773-7.144,18.3-1.086,2-2.2,4.062-3.278,6.187-.008.014-.014.027-.021.041-2.773,5.489-5.257,11.409-6.175,17.869-.011.065-.02.131-.026.2a36.473,36.473,0,0,0-.275,7.373,98.714,98.714,0,0,0,2.2,14.56,2.347,2.347,0,0,0,4.584-1.007,94.261,94.261,0,0,1-2.1-13.859c-.052-.791-.07-1.574-.062-2.349l33.367,25.605a15.781,15.781,0,0,0,8.126,3.073v17.207H37.522c-.861-2.118-2.56-6.44-4.385-11.873a2.347,2.347,0,0,0-4.45,1.491c2.669,7.943,5.01,13.419,5.108,13.648a2.348,2.348,0,0,0,2.157,1.421h67.685a2.348,2.348,0,0,0,2.157-1.421c.454-1.056,11.122-26.116,12.461-46.5a36.861,36.861,0,0,0-.459-8.59c-.005-.043-.013-.085-.021-.128ZM42.942,61.216c.4-8.5-1.672-14.211-3.629-17.647h60.965C98.32,47,96.253,52.72,96.649,61.216c.311,6.68,3.9,13.3,7.705,20.314.792,1.459,1.588,2.928,2.363,4.408-8.531,6.248-22.143,9.938-36.922,9.938S41.4,92.185,32.874,85.938c.776-1.48,1.571-2.949,2.363-4.408,3.8-7.011,7.4-13.634,7.706-20.314ZM26.475,102.794a50.306,50.306,0,0,1,4.277-12.613c9.357,6.538,23.671,10.382,39.044,10.382s29.687-3.845,39.044-10.382A52.118,52.118,0,0,1,112.9,101.7L75.487,130.409c-3.531,2.71-9.624,2.612-13.3-.212Zm87.1,7.864c-1.109,16.892-9.234,37.936-11.5,43.536H72.142v-17.4a14.409,14.409,0,0,0,6.2-2.666L113.6,107.074a31.429,31.429,0,0,1-.027,3.583Zm0,0" fill-rule="evenodd"/>
          <path id="Path_46" data-name="Path 46" d="M69.8,84.964a2.345,2.345,0,0,0,2.347-2.344V75.484a2.347,2.347,0,0,0-4.694,0V82.62A2.345,2.345,0,0,0,69.8,84.964Zm0,0" fill-rule="evenodd"/>
          <path id="Path_47" data-name="Path 47" d="M23.922,64.743a2.345,2.345,0,0,0,3.318,3.314l6.8-6.791a2.328,2.328,0,0,0,0-3.318l-6.8-6.795a2.345,2.345,0,0,0-3.318,3.315l2.8,2.793H13.142a2.344,2.344,0,1,0,0,4.688H26.72Zm0,0" fill-rule="evenodd"/>
          <path id="Path_48" data-name="Path 48" d="M126.448,57.262H112.872l2.8-2.793a2.345,2.345,0,1,0-3.319-3.315l-6.8,6.795a2.373,2.373,0,0,0-.553,2.47,2.528,2.528,0,0,0,.553.844l6.8,6.8a2.345,2.345,0,1,0,3.319-3.314l-2.8-2.794h13.577a2.344,2.344,0,1,0,0-4.688Zm0,0" fill-rule="evenodd"/>
          <path id="Path_49" data-name="Path 49" d="M30.476,134.11a2.347,2.347,0,1,0-2.347,2.344,2.35,2.35,0,0,0,2.347-2.344Zm0,0" fill-rule="evenodd"/>
        </g>
      </g>
      <rect id="Place_Your_Design_Here" data-name="Place Your Design Here" fill="url(#pattern)"/>
    </g>
    <g id="Clip" clip-path="url(#clip-path)">
      <g id="Color_" data-name="Color      " transform="translate(1)">
        <rect id="Color_2" data-name="Color " width="1440" height="8000" fill="#00c0ff"/>
      </g>
    </g>
  </g>
</svg>
