<svg xmlns="http://www.w3.org/2000/svg" xmlns:xlink="http://www.w3.org/1999/xlink" width="69" height="119" viewBox="0 0 69 119">
  <defs>
    <pattern id="pattern" preserveAspectRatio="none" width="100%" height="100%" viewBox="0 0 0 0">
      <image/>
    </pattern>
    <clipPath id="clip-path">
      <path d="M219.845,3587A12.842,12.842,0,0,1,207,3574.19v-14.947a2.331,2.331,0,0,1,4.661,0v4.648h59.678v-49.539a2.33,2.33,0,0,1,4.66,0v59.839A12.842,12.842,0,0,1,263.155,3587Zm-8.184-12.81a8.182,8.182,0,0,0,8.184,8.161h43.31a8.182,8.182,0,0,0,8.184-8.161v-5.651H211.661Zm25.855,3.58a2.324,2.324,0,1,1,0-4.648h7.968a2.324,2.324,0,1,1,0,4.648Zm-21.967-47.293c-.005-.037-.01-.073-.013-.109a26.123,26.123,0,1,1,51.927,0c0,.034-.007.067-.012.1a26.13,26.13,0,0,1-51.9.006ZM241.5,3548.9a21.486,21.486,0,0,0,20.87-16.409h-7.34a2.33,2.33,0,0,1-2.129-1.38l-3.817-8.562-7.037,16.647a2.331,2.331,0,0,1-2.141,1.42H239.9a2.33,2.33,0,0,1-2.141-1.408l-5.389-12.528-2.1,4.473a2.333,2.333,0,0,1-2.111,1.338h-7.528A21.488,21.488,0,0,0,241.5,3548.9Zm-9-30.219a2.333,2.333,0,0,1,2.1,1.408l5.273,12.263,7-16.556A2.333,2.333,0,0,1,249,3514.38h.023a2.328,2.328,0,0,1,2.128,1.379l5.389,12.088h6.412c0-.115,0-.23,0-.347a21.462,21.462,0,0,0-42.924,0c0,.116,0,.231,0,.347h6.635l3.679-7.825a2.329,2.329,0,0,1,2.109-1.336Zm-25.5,31.26a2.331,2.331,0,1,1,2.331,2.324A2.332,2.332,0,0,1,207,3549.946Zm0-9.3V3480.81A12.842,12.842,0,0,1,219.845,3468h43.31A12.842,12.842,0,0,1,276,3480.81v14.947a2.33,2.33,0,0,1-4.66,0v-4.65H211.661v49.542a2.331,2.331,0,0,1-4.661,0Zm4.661-59.839v5.649h59.678v-5.65a8.182,8.182,0,0,0-8.183-8.162H219.845A8.183,8.183,0,0,0,211.661,3480.81Zm59.678,24.244a2.33,2.33,0,1,1,2.33,2.324A2.331,2.331,0,0,1,271.339,3505.054ZM230.9,3481.878a2.324,2.324,0,1,1,0-4.648H252.1a2.324,2.324,0,1,1,0,4.648Z" fill="none"/>
    </clipPath>
  </defs>
  <g id="Vector_Smart_Object_Double_Click_to_Edit_" data-name="Vector Smart Object (Double Click to Edit)" transform="translate(-207 -3468)">
    <g id="Vector_Smart_Object_Double_Click_to_Edit_2" data-name="Vector Smart Object (Double Click to Edit)" transform="translate(207 3468)">
      <g id="Vector_Smart_Object" data-name="Vector Smart Object" transform="translate(-34.724 -38.556)">
        <g id="Group_23" data-name="Group 23">
          <path id="Path_65" data-name="Path 65" d="M90.879,38.556H47.569a12.843,12.843,0,0,0-12.845,12.81v59.839a2.33,2.33,0,0,0,4.661,0V61.664H99.063v4.649a2.33,2.33,0,0,0,4.661,0V51.367a12.842,12.842,0,0,0-12.845-12.81ZM39.385,57.016V51.367A8.182,8.182,0,0,1,47.569,43.2H90.88a8.182,8.182,0,0,1,8.183,8.162v5.65H39.385Zm0,0" fill-rule="evenodd"/>
          <path id="Path_66" data-name="Path 66" d="M101.393,82.583a2.328,2.328,0,0,0-2.33,2.324v49.54H39.385V129.8a2.33,2.33,0,0,0-4.661,0v14.947a12.843,12.843,0,0,0,12.845,12.81h43.31a12.842,12.842,0,0,0,12.845-12.81V84.907a2.327,2.327,0,0,0-2.33-2.324ZM90.879,152.908H47.569a8.182,8.182,0,0,1-8.184-8.162V139.1H99.063v5.65a8.182,8.182,0,0,1-8.184,8.162Zm0,0" fill-rule="evenodd"/>
          <path id="Path_67" data-name="Path 67" d="M79.828,47.786H58.62a2.324,2.324,0,1,0,0,4.648H79.828a2.324,2.324,0,1,0,0-4.648Zm0,0" fill-rule="evenodd"/>
          <path id="Path_68" data-name="Path 68" d="M73.208,143.678H65.24a2.324,2.324,0,1,0,0,4.648h7.967a2.324,2.324,0,1,0,0-4.648Zm0,0" fill-rule="evenodd"/>
          <path id="Path_69" data-name="Path 69" d="M69.224,124.11a26.134,26.134,0,0,0,25.952-23.082c0-.033.009-.066.012-.1a26.123,26.123,0,1,0-51.927,0c0,.036.007.073.013.109A26.133,26.133,0,0,0,69.224,124.11Zm0-4.648a21.487,21.487,0,0,1-20.87-16.409h7.528a2.332,2.332,0,0,0,2.11-1.337l2.1-4.473,5.388,12.528a2.33,2.33,0,0,0,2.141,1.408h.007a2.332,2.332,0,0,0,2.14-1.421l7.037-16.647,3.817,8.562a2.331,2.331,0,0,0,2.129,1.38h7.34a21.486,21.486,0,0,1-20.87,16.409Zm0-42.809a21.458,21.458,0,0,1,21.462,21.4c0,.116,0,.231,0,.347H84.269L78.881,86.315a2.33,2.33,0,0,0-2.129-1.38h-.023A2.331,2.331,0,0,0,74.6,86.357l-7,16.556L62.332,90.651a2.332,2.332,0,0,0-2.1-1.408H60.19a2.331,2.331,0,0,0-2.11,1.336L54.4,98.4H47.766c0-.115,0-.231,0-.347a21.458,21.458,0,0,1,21.462-21.4Zm0,0" fill-rule="evenodd"/>
          <path id="Path_70" data-name="Path 70" d="M37.054,122.827a2.324,2.324,0,1,0-2.33-2.324,2.332,2.332,0,0,0,2.33,2.324Zm0,0" fill-rule="evenodd"/>
          <path id="Path_71" data-name="Path 71" d="M101.393,73.286a2.324,2.324,0,1,0,2.33,2.324,2.332,2.332,0,0,0-2.33-2.324Zm0,0" fill-rule="evenodd"/>
        </g>
      </g>
      <rect id="Place_Your_Design_Here" data-name="Place Your Design Here" fill="url(#pattern)"/>
    </g>
    <g id="Clip" clip-path="url(#clip-path)">
      <g id="Color_" data-name="Color " transform="translate(-2 53)">
        <rect id="Color_2" data-name="Color " width="1440" height="8000" fill="#00c0ff"/>
      </g>
    </g>
  </g>
</svg>
