<svg xmlns="http://www.w3.org/2000/svg" xmlns:xlink="http://www.w3.org/1999/xlink" width="98.001" height="108.001" viewBox="0 0 98.001 108.001">
  <defs>
    <pattern id="pattern" preserveAspectRatio="none" width="100%" height="100%" viewBox="0 0 0 0">
      <image/>
    </pattern>
    <clipPath id="clip-path">
      <path d="M721,3579.287a8.088,8.088,0,0,1-6.041,2.713,8.175,8.175,0,0,1-8.134-8.2v-10.928a2.093,2.093,0,1,1,4.186,0V3573.8a3.948,3.948,0,1,0,7.9,0V3544.41a2.093,2.093,0,1,1,4.186,0V3573.8a3.948,3.948,0,1,0,7.9,0v-42.264H711.011V3546a2.093,2.093,0,1,1-4.186,0v-14.461H689.753v11.45a2.1,2.1,0,0,1-2.092,2.109H674.093a2.1,2.1,0,0,1-2.093-2.109v-27.118a2.1,2.1,0,0,1,2.093-2.11H687.66a2.1,2.1,0,0,1,2.092,2.11v11.449h5.569q-.005-2.389-.013-4.785c-.018-4.605-.034-9.367.018-14.042.1-8.609,6.612-15.351,14.828-15.351h1.936a11.591,11.591,0,1,1,17.818,0h1.936c8.214,0,14.729,6.742,14.828,15.351.051,4.673.035,9.436.018,14.041q-.008,2.4-.013,4.786h5.568v-11.449a2.1,2.1,0,0,1,2.093-2.11h13.567a2.1,2.1,0,0,1,2.093,2.11v27.118a2.1,2.1,0,0,1-2.093,2.109H754.34a2.1,2.1,0,0,1-2.093-2.109v-11.45H735.174V3573.8a8.173,8.173,0,0,1-8.133,8.2A8.088,8.088,0,0,1,721,3579.287Zm35.432-38.407h9.382v-22.9h-9.382Zm-80.246,0h9.381v-22.9h-9.381Zm34.825-26.259v12.7h19.977v-12.7a2.093,2.093,0,1,1,4.186,0v12.7h7.317q0-2.4.013-4.8c.016-4.59.033-9.336-.018-13.979-.074-6.371-4.648-11.179-10.642-11.179h-21.69c-5.993,0-10.568,4.808-10.642,11.182-.051,4.641-.034,9.388-.018,13.978q.009,2.4.014,4.8h7.315v-12.7a2.093,2.093,0,1,1,4.186,0Zm2.585-28.94a7.442,7.442,0,0,0,7.4,7.462H721a7.462,7.462,0,1,0-7.408-7.462Zm-6.771,68.758a2.093,2.093,0,1,1,2.093,2.11A2.106,2.106,0,0,1,706.825,3554.438Z" fill="none"/>
    </clipPath>
  </defs>
  <g id="Vector_Smart_Object1_Double_Click_to_Edit_" data-name="Vector Smart Object1 (Double Click to Edit)" transform="translate(-671.999 -3473.999)">
    <g id="Vector_Smart_Object1_Double_Click_to_Edit_2" data-name="Vector Smart Object1 (Double Click to Edit)" transform="translate(672 3474)">
      <g id="Vector_Smart_Object" data-name="Vector Smart Object" transform="translate(-13.187 -34.992)">
        <g id="Group_21" data-name="Group 21">
          <path id="Path_61" data-name="Path 61" d="M109.094,74.754H95.526a2.1,2.1,0,0,0-2.093,2.109V88.313H87.865q0-2.391.013-4.786c.016-4.605.033-9.368-.019-14.042-.1-8.608-6.612-15.351-14.827-15.351H71.1a11.591,11.591,0,1,0-17.819,0H51.342c-8.216,0-14.728,6.743-14.828,15.352-.051,4.674-.035,9.436-.018,14.041q.009,2.394.013,4.786H30.94V76.864a2.1,2.1,0,0,0-2.093-2.109H15.28a2.1,2.1,0,0,0-2.093,2.109v27.117a2.1,2.1,0,0,0,2.093,2.109H28.847a2.1,2.1,0,0,0,2.093-2.109V92.531H48.012v14.462a2.093,2.093,0,1,0,4.186,0V92.531H72.175V134.8a3.948,3.948,0,1,1-7.9,0V105.4a2.093,2.093,0,1,0-4.186,0V134.8a3.948,3.948,0,1,1-7.9,0V123.868a2.093,2.093,0,1,0-4.186,0V134.8a8.175,8.175,0,0,0,8.134,8.2,8.087,8.087,0,0,0,6.041-2.713,8.089,8.089,0,0,0,6.041,2.713,8.175,8.175,0,0,0,8.134-8.2V92.531H93.433v11.449a2.1,2.1,0,0,0,2.093,2.109h13.567a2.1,2.1,0,0,0,2.093-2.109V76.864a2.1,2.1,0,0,0-2.093-2.109Zm-82.34,27.117H17.373v-22.9h9.381Zm28.029-55.2a7.4,7.4,0,1,1,7.408,7.461h-.008a7.441,7.441,0,0,1-7.4-7.461ZM40.7,88.313q0-2.4-.014-4.8c-.016-4.59-.033-9.337.018-13.979.074-6.374,4.648-11.181,10.642-11.181h21.69c5.993,0,10.568,4.807,10.642,11.18.051,4.642.034,9.389.018,13.98q-.008,2.4-.014,4.8H76.362v-12.7a2.093,2.093,0,1,0-4.186,0v12.7H52.2v-12.7a2.093,2.093,0,1,0-4.186,0v12.7ZM107,101.871H97.62v-22.9H107Zm0,0" fill-rule="evenodd"/>
          <path id="Path_62" data-name="Path 62" d="M50.105,117.54a2.109,2.109,0,1,0-2.093-2.109,2.105,2.105,0,0,0,2.093,2.109Zm0,0" fill-rule="evenodd"/>
        </g>
      </g>
      <rect id="Place_Your_Design_Here" data-name="Place Your Design Here" fill="url(#pattern)"/>
    </g>
    <g id="Clip" clip-path="url(#clip-path)">
      <g id="Color_" data-name="Color " transform="translate(-2 53)">
        <rect id="Color_2" data-name="Color " width="1440" height="8000" fill="#00c0ff"/>
      </g>
    </g>
  </g>
</svg>
