<svg xmlns="http://www.w3.org/2000/svg" width="33" height="32" viewBox="0 0 33 32">
  <g id="Youtube_Icon" data-name="Youtube Icon" transform="translate(-148.058 -143.571)">
    <g id="Group_1" data-name="Group 1">
      <path id="Path_2" data-name="Path 2" d="M163.045,156.807a.257.257,0,0,0-.388.255v5.056a.257.257,0,0,0,.382.258l4.632-2.464a.29.29,0,0,0,.037-.512Z" fill="#333033"/>
      <path id="Path_3" data-name="Path 3" d="M164.558,143.572a16.007,16.007,0,1,0,16.5,16A16.255,16.255,0,0,0,164.558,143.572ZM175,162.285a4.412,4.412,0,0,1-4.478,4.342H158.906a4.411,4.411,0,0,1-4.478-4.342v-5.278a4.411,4.411,0,0,1,4.478-4.342H170.52A4.411,4.411,0,0,1,175,157.007Z" fill="#333033"/>
    </g>
  </g>
</svg>
