<svg xmlns="http://www.w3.org/2000/svg" width="117.001" height="117.002" viewBox="0 0 117.001 117.002">
  <path id="pencil_with_paper" data-name="pencil with paper" d="M642.88,955A18.879,18.879,0,0,1,624,936.12V860.61a18.879,18.879,0,0,1,18.88-18.879H703.3L691.979,853.05H646.66a11.342,11.342,0,0,0-11.33,11.33v67.96a11.342,11.342,0,0,0,11.33,11.33h67.97a11.342,11.342,0,0,0,11.33-11.33v-45.3l11.33-11.326v60.41A18.879,18.879,0,0,1,718.41,955Zm27.881-65.2,18.113,18L663.517,915Zm2.522-2.508L713.129,847.7l18.112,18-39.846,39.592Zm42.6-42.338,5.433-5.4a4.994,4.994,0,0,1,7.019-.225l11.32,11.247a4.917,4.917,0,0,1-.227,6.974l-5.433,5.4Z" transform="translate(-624 -837.998)" fill="#00bac6"/>
</svg>
