<svg xmlns="http://www.w3.org/2000/svg" xmlns:xlink="http://www.w3.org/1999/xlink" width="256" height="65.714" viewBox="0 0 256 65.714">
  <defs>
    <pattern id="pattern" preserveAspectRatio="none" width="100%" height="100%" viewBox="0 0 0 0">
      <image/>
    </pattern>
  </defs>
  <g id="Place_Your_Logo_Here_Double_Click_to_Edit_" data-name="Place Your Logo Here (Double Click to Edit)" transform="translate(0 1.714)">
    <path id="Rectangle" d="M91.816,3.155H256V29.746H187.7V58.141H91.816Z" fill="#452a31"/>
    <text id="COMPANY_NAME" data-name="COMPANY
NAME" transform="translate(92.553 25.286)" fill="#c9ebfb" font-size="28" font-family="Montserrat-ExtraBold, Montserrat" font-weight="800"><tspan x="0" y="0">COMPANY</tspan><tspan x="0" y="30">NAME</tspan></text>
    <g id="Place_Your_Logo_Here_Double_Click_to_Edit_2" data-name="Place Your Logo Here (Double Click to Edit)" transform="translate(-802.37 -317.574)">
      <g id="Group_17" data-name="Group 17">
        <g id="Group_16" data-name="Group 16">
          <path id="Path_64" data-name="Path 64" d="M876.176,332.743a42.379,42.379,0,0,0-7.478-9.162c-5.182-4.577-9.73-4.415-11.98-3.911a9.246,9.246,0,0,0-3.272,1.428,24.218,24.218,0,0,0-25.424.162,9.269,9.269,0,0,0-3.109-1.317c-2.25-.5-6.8-.666-11.979,3.911a42.37,42.37,0,0,0-7.479,9.162c-3.33,5.591-3.967,10.3-1.893,14a11.284,11.284,0,0,0,8.859,5.828,34.047,34.047,0,0,0-.613,6.615,21.6,21.6,0,0,0,3.206,11.924,19.494,19.494,0,0,0,8.013,6.925c6.008,2.928,13.051,3.267,17.825,3.267s11.817-.339,17.825-3.267a19.484,19.484,0,0,0,8.012-6.925,21.589,21.589,0,0,0,3.208-11.924,33.894,33.894,0,0,0-.668-6.89,11.281,11.281,0,0,0,8.842-5.827c2.075-3.7,1.437-8.406-1.893-14Zm-61.035,11.368c-.448,1.191-.882,2.34-1.279,3.5-2.411-.124-4.307-.819-5.644-3.2s.254-6.026,1.823-8.662a37.029,37.029,0,0,1,6.427-7.894c3.4-3.008,6.019-2.984,7.275-2.7l.092.022c-3.288,3.993-5.249,9.027-6.877,13.9-.625,1.873-1.231,3.482-1.818,5.039Zm27.84,14.523a3.416,3.416,0,0,1-5.506-2.152.64.64,0,0,1,.46-.731,13.324,13.324,0,0,1,5.833,0,.64.64,0,0,1,.46.731,3.845,3.845,0,0,1-1.246,2.152ZM862.2,368.49a14.234,14.234,0,0,1-5.868,5.023c-4.043,1.971-8.87,2.536-12.815,2.681V364.641a10.5,10.5,0,0,0,3.232-2.23,8.812,8.812,0,0,0,2.814-5.928,5.949,5.949,0,0,0-3.731-5.648,17.155,17.155,0,0,0-9.967,0,5.95,5.95,0,0,0-3.731,5.648,8.811,8.811,0,0,0,2.814,5.928,10.5,10.5,0,0,0,3.231,2.23v11.553c-3.944-.146-8.771-.711-12.814-2.681a14.235,14.235,0,0,1-5.868-5.023,16.384,16.384,0,0,1-2.354-9.031c0-5.526,1.255-8.857,2.992-13.469.6-1.6,1.228-3.26,1.886-5.23,1.546-4.633,3.394-9.386,6.416-12.762,3.109-3.472,7.053-5.09,12.411-5.09s9.3,1.618,12.411,5.09c3.022,3.376,4.87,8.129,6.416,12.762.655,1.96,1.279,3.618,1.887,5.23,1.737,4.61,2.992,7.942,2.992,13.469a16.382,16.382,0,0,1-2.354,9.031Zm11.208-24.356c-1.341,2.391-3.243,3.083-5.666,3.2-.372-1.069-.774-2.134-1.188-3.235-.586-1.556-1.192-3.165-1.814-5.029-1.66-4.974-3.667-10.112-7.077-14.143.072-.019.146-.038.22-.055,1.256-.281,3.871-.3,7.275,2.7a37.054,37.054,0,0,1,6.427,7.893c1.57,2.635,3.161,6.278,1.823,8.662Zm0,0" fill="#341f25"/>
        </g>
        <path id="Path_65" data-name="Path 65" d="M833.682,335.977a2.668,2.668,0,0,0-2.67,2.667v4.013a2.669,2.669,0,0,0,5.339,0v-4.013a2.668,2.668,0,0,0-2.669-2.667Zm0,0" fill="#341f25"/>
        <path id="Path_66" data-name="Path 66" d="M847.947,335.977a2.668,2.668,0,0,0-2.669,2.667v4.013a2.669,2.669,0,0,0,5.339,0v-4.013a2.668,2.668,0,0,0-2.67-2.667Zm0,0" fill="#341f25"/>
      </g>
    </g>
    <rect id="Place_Your_Logo_Here_Double_Click_to_Edit_3" data-name="Place Your Logo Here (Double Click to Edit)" fill="url(#pattern)"/>
  </g>
</svg>
