<svg xmlns="http://www.w3.org/2000/svg" xmlns:xlink="http://www.w3.org/1999/xlink" width="231" height="68" viewBox="0 0 231 68"><defs><clipPath id="clip-path"><rect id="Ret&#xE2;ngulo_285" data-name="Ret&#xE2;ngulo 285" width="231" height="68" transform="translate(70)" fill="#fff"></rect></clipPath></defs><g id="Grupo_de_m&#xE1;scara_1" data-name="Grupo de m&#xE1;scara 1" transform="translate(-70)" clip-path="url(#clip-path)"><g id="Grupo_865" data-name="Grupo 865" transform="translate(-765.081 3254.816)" opacity="0.4"><path id="Caminho_1905" data-name="Caminho 1905" d="M1745.979-3218.636l17.716-69.834h13.682a2.515,2.515,0,0,1,2.61,3.4c-5.931,23.806-13.208,52.277-21.274,83.913-7.355.553-12.97-4.429-13.6-10.756C1744.792-3214.444,1745.425-3216.264,1745.979-3218.636Z" transform="translate(-748.42 -0.058)" fill="#fff" fill-rule="evenodd"></path><path id="Caminho_1906" data-name="Caminho 1906" d="M987.024-3288.529c1.977-.079,3.163,1.344,2.689,3.4-5.773,22.777-10.835,42.628-16.371,64.536a36.689,36.689,0,0,0,4.587,25.466,34.949,34.949,0,0,0,21.986,16.371,34.934,34.934,0,0,0,27.048-3.955,35.274,35.274,0,0,0,16.371-21.907,36.277,36.277,0,0,0-3.954-27.127,35.81,35.81,0,0,0-14.236-13.444c1.424-5.536,2.847-10.993,4.192-16.609a49.66,49.66,0,0,1,4.587,2.293,52.625,52.625,0,0,1,19.93,19.139,52.829,52.829,0,0,1,5.773,39.86,52.482,52.482,0,0,1-24.043,32.268,52.474,52.474,0,0,1-39.86,5.773,52.365,52.365,0,0,1-32.268-23.964,52.882,52.882,0,0,1-5.773-39.86c5.22-20.721,10.44-41.521,15.659-62.242Z" transform="translate(0 0)" fill="#fff" fill-rule="evenodd"></path><path id="Caminho_1907" data-name="Caminho 1907" d="M1414.6-3205.429a32.07,32.07,0,0,1-14.71,19.772,32.462,32.462,0,0,1-24.359,3.559,32.262,32.262,0,0,1-19.772-14.79,32.084,32.084,0,0,1-3.8-24.359l17-67.225h13.682a2.541,2.541,0,0,1,2.61,3.4l-.079.317-4.745,18.665c-4.35,17.241-10.44,41.363-12.021,47.69a16.411,16.411,0,0,0-.712,6.8,14.953,14.953,0,0,0,2.373,6.722,15.441,15.441,0,0,0,2.214,2.768,15.815,15.815,0,0,0,26.415-7.355,15.725,15.725,0,0,0-1.74-11.942,17.7,17.7,0,0,0-2.294-3.005c1.424-5.694,2.847-11.389,4.35-17.083a31.984,31.984,0,0,1,12.021,11.626A31.844,31.844,0,0,1,1414.6-3205.429Z" transform="translate(-374.67 -0.058)" fill="#fff" fill-rule="evenodd"></path></g><g id="Grupo_866" data-name="Grupo 866" transform="translate(-1435.061 337.234)"><path id="Caminho_1696" data-name="Caminho 1696" d="M1517.69-317.869a6.544,6.544,0,0,0-5.154-2.2,5.919,5.919,0,0,0-3.072.768,6.531,6.531,0,0,0-2.116,1.98,8.712,8.712,0,0,0-1.212,2.73,12.145,12.145,0,0,0-.393,3.055,11.905,11.905,0,0,0,.427,3.208,8.617,8.617,0,0,0,1.263,2.714,6.053,6.053,0,0,0,2.116,1.86,6.248,6.248,0,0,0,2.986.683,6.454,6.454,0,0,0,3.02-.683,6.7,6.7,0,0,0,2.219-1.843,8.407,8.407,0,0,0,1.382-2.7,10.848,10.848,0,0,0,.478-3.242,9.27,9.27,0,0,0-1.945-6.332m2.628-9.3V-302.8h-.683v-4.915h-.068a7.427,7.427,0,0,1-2.509,3.823,6.987,6.987,0,0,1-4.522,1.468,6.963,6.963,0,0,1-3.123-.682,6.912,6.912,0,0,1-2.355-1.894,8.54,8.54,0,0,1-1.485-2.884,12.434,12.434,0,0,1-.512-3.652,12.313,12.313,0,0,1,.5-3.516,9.272,9.272,0,0,1,1.433-2.935,7,7,0,0,1,2.338-2.014,6.682,6.682,0,0,1,3.208-.751,7.08,7.08,0,0,1,4.607,1.468,7.1,7.1,0,0,1,2.423,3.857h.068v-11.741Z" transform="translate(0)" fill="#fff"></path><path id="Caminho_1697" data-name="Caminho 1697" d="M1584.918-320.343h.683V-302.8h-.683Zm0-6.826h.683v3.447h-.683Z" transform="translate(-51.055)" fill="#fff"></path><g id="Grupo_703" data-name="Grupo 703" transform="translate(1546.959 -326.998)"><path id="Caminho_1698" data-name="Caminho 1698" d="M1627.336-321.781h-.512l4.505-4.915h.99Zm6.724,8.976a2.131,2.131,0,0,1-1.058.734,8.649,8.649,0,0,1-1.639.392,17.209,17.209,0,0,1-2,.171q-1.075.035-2.1.1a16.264,16.264,0,0,0-2,.256,4.733,4.733,0,0,0-1.724.683,3.5,3.5,0,0,0-1.194,1.365,5,5,0,0,0-.444,2.27,4.481,4.481,0,0,0,.256,1.484,3.153,3.153,0,0,0,.87,1.3,4.747,4.747,0,0,0,1.587.921,6.994,6.994,0,0,0,2.406.359,7.523,7.523,0,0,0,3.037-.581,6.854,6.854,0,0,0,2.236-1.519,6.257,6.257,0,0,0,1.365-2.167,7.14,7.14,0,0,0,.461-2.525v-3.243Zm-11.229-4.113a5.281,5.281,0,0,1,1.28-1.86,5.926,5.926,0,0,1,2.047-1.228,8.287,8.287,0,0,1,2.85-.444,9.853,9.853,0,0,1,2.2.239,4.733,4.733,0,0,1,1.826.836,4.391,4.391,0,0,1,1.263,1.553,5.637,5.637,0,0,1,.512,2.389v11.161a1.138,1.138,0,0,0,.2.751,1.02,1.02,0,0,0,.546.324,2.522,2.522,0,0,0,.734.068q.392-.016.734-.051v.683h-1.024a2.4,2.4,0,0,1-1.314-.359,1.475,1.475,0,0,1-.563-1.348v-2.287h-.068a5.464,5.464,0,0,1-.87,1.638,6.353,6.353,0,0,1-1.5,1.4,7.681,7.681,0,0,1-2.065.972,8.519,8.519,0,0,1-2.526.359,7.048,7.048,0,0,1-4.266-1.177,4.1,4.1,0,0,1-1.6-3.532,5.582,5.582,0,0,1,.529-2.628,4.172,4.172,0,0,1,1.382-1.553,5.482,5.482,0,0,1,1.946-.785,16,16,0,0,1,2.184-.29q1.809-.1,3.106-.188a9.582,9.582,0,0,0,2.133-.341,2.307,2.307,0,0,0,1.228-.785,2.515,2.515,0,0,0,.392-1.519,10.445,10.445,0,0,0-.136-1.638,3.567,3.567,0,0,0-.665-1.57,3.832,3.832,0,0,0-1.553-1.178,6.847,6.847,0,0,0-2.765-.461,6.307,6.307,0,0,0-4.3,1.348,5.315,5.315,0,0,0-1.707,3.805h-.682a7.014,7.014,0,0,1,.512-2.3" transform="translate(-1621.227 326.696)" fill="#fff"></path></g><rect id="Ret&#xE2;ngulo_171" data-name="Ret&#xE2;ngulo 171" width="0.683" height="24.369" transform="translate(1574.28 -327.169)" fill="#fff"></rect><g id="Grupo_704" data-name="Grupo 704" transform="translate(1587.525 -320.753)"><path id="Caminho_1699" data-name="Caminho 1699" d="M1734.844-296.99a8.153,8.153,0,0,0,1.383,2.713,6.838,6.838,0,0,0,2.27,1.877,6.68,6.68,0,0,0,3.123.7,6.611,6.611,0,0,0,3.089-.7,6.851,6.851,0,0,0,2.269-1.877,8.146,8.146,0,0,0,1.383-2.713,11.109,11.109,0,0,0,.461-3.208,10.989,10.989,0,0,0-.461-3.174,8.151,8.151,0,0,0-1.383-2.714,7.048,7.048,0,0,0-2.269-1.894,6.483,6.483,0,0,0-3.089-.717,6.551,6.551,0,0,0-3.123.717,7.034,7.034,0,0,0-2.27,1.894,8.157,8.157,0,0,0-1.383,2.714,10.994,10.994,0,0,0-.461,3.174,11.113,11.113,0,0,0,.461,3.208m-.631-6.672a8.807,8.807,0,0,1,1.519-2.918,7.678,7.678,0,0,1,2.475-2.031,7.26,7.26,0,0,1,3.413-.768,7.183,7.183,0,0,1,3.378.768,7.691,7.691,0,0,1,2.475,2.031,8.819,8.819,0,0,1,1.519,2.918,11.655,11.655,0,0,1,.512,3.464,11.654,11.654,0,0,1-.512,3.464,8.807,8.807,0,0,1-1.519,2.918A7.481,7.481,0,0,1,1745-291.8a7.4,7.4,0,0,1-3.413.751,7.322,7.322,0,0,1-3.379-.751,7.469,7.469,0,0,1-2.475-2.014,8.8,8.8,0,0,1-1.519-2.918,11.662,11.662,0,0,1-.512-3.464,11.663,11.663,0,0,1,.512-3.464" transform="translate(-1733.7 309.379)" fill="#fff"></path><path id="Caminho_1700" data-name="Caminho 1700" d="M1823.531-303.713a7.965,7.965,0,0,0-1.262-2.543,6.235,6.235,0,0,0-2.1-1.775,6.131,6.131,0,0,0-2.9-.666,6.673,6.673,0,0,0-2.986.632,6.233,6.233,0,0,0-2.15,1.723,7.368,7.368,0,0,0-1.3,2.526,10.588,10.588,0,0,0-.427,3.038,10.363,10.363,0,0,0,.427,3.038,7.184,7.184,0,0,0,1.263,2.44,5.933,5.933,0,0,0,2.065,1.638,6.4,6.4,0,0,0,2.833.6,6.945,6.945,0,0,0,3-.614,6.285,6.285,0,0,0,2.167-1.655,7.3,7.3,0,0,0,1.331-2.457,9.593,9.593,0,0,0,.461-2.986,10.235,10.235,0,0,0-.427-2.935m.393,6.416a5.5,5.5,0,0,1-.973,2.082,6.857,6.857,0,0,1-1.638,1.553,7.334,7.334,0,0,1-2.048.956,7.921,7.921,0,0,1-2.235.324,7.089,7.089,0,0,1-3.209-.683,6.618,6.618,0,0,1-2.269-1.826,7.957,7.957,0,0,1-1.365-2.679,11.123,11.123,0,0,1-.46-3.208,11.242,11.242,0,0,1,.478-3.328,8.024,8.024,0,0,1,1.433-2.731,6.835,6.835,0,0,1,2.372-1.86,7.431,7.431,0,0,1,3.26-.682,6.923,6.923,0,0,1,2.355.393,6.979,6.979,0,0,1,1.962,1.075,6.574,6.574,0,0,1,1.468,1.6,6.67,6.67,0,0,1,.87,2.014h.068v-4.676h.683v16.963q0,3.617-1.912,5.307a7.877,7.877,0,0,1-5.392,1.689,10.108,10.108,0,0,1-2.526-.307,6.213,6.213,0,0,1-2.115-.973,4.843,4.843,0,0,1-1.468-1.707,5.706,5.706,0,0,1-.581-2.543h.683a4.908,4.908,0,0,0,.529,2.219,4.314,4.314,0,0,0,1.314,1.5,5.674,5.674,0,0,0,1.895.853,9.053,9.053,0,0,0,2.235.273,7.229,7.229,0,0,0,4.932-1.519q1.723-1.519,1.724-4.8v-5.29Z" transform="translate(-1782.305 309.379)" fill="#fff"></path><path id="Caminho_1701" data-name="Caminho 1701" d="M1887.008-296.99a8.157,8.157,0,0,0,1.382,2.713,6.842,6.842,0,0,0,2.27,1.877,6.68,6.68,0,0,0,3.123.7,6.609,6.609,0,0,0,3.089-.7,6.85,6.85,0,0,0,2.269-1.877,8.15,8.15,0,0,0,1.382-2.713,11.109,11.109,0,0,0,.461-3.208,10.989,10.989,0,0,0-.461-3.174,8.155,8.155,0,0,0-1.382-2.714,7.047,7.047,0,0,0-2.269-1.894,6.482,6.482,0,0,0-3.089-.717,6.551,6.551,0,0,0-3.123.717,7.038,7.038,0,0,0-2.27,1.894,8.161,8.161,0,0,0-1.382,2.714,10.977,10.977,0,0,0-.461,3.174,11.1,11.1,0,0,0,.461,3.208m-.631-6.672a8.8,8.8,0,0,1,1.519-2.918,7.674,7.674,0,0,1,2.474-2.031,7.26,7.26,0,0,1,3.413-.768,7.183,7.183,0,0,1,3.379.768,7.7,7.7,0,0,1,2.475,2.031,8.828,8.828,0,0,1,1.519,2.918,11.667,11.667,0,0,1,.512,3.464,11.665,11.665,0,0,1-.512,3.464,8.817,8.817,0,0,1-1.519,2.918,7.485,7.485,0,0,1-2.475,2.014,7.4,7.4,0,0,1-3.413.751,7.324,7.324,0,0,1-3.379-.751,7.465,7.465,0,0,1-2.474-2.014,8.787,8.787,0,0,1-1.519-2.918,11.654,11.654,0,0,1-.512-3.464,11.655,11.655,0,0,1,.512-3.464" transform="translate(-1830.982 309.379)" fill="#fff"></path><path id="Caminho_1702" data-name="Caminho 1702" d="M1968.667-274.177v5.256a5.257,5.257,0,0,1-.427,2.133,5.472,5.472,0,0,1-1.143,1.69,6,6,0,0,1-1.689,1.177,7.52,7.52,0,0,1-2.065.632v-2.458a2.692,2.692,0,0,0,.972-.41,3.52,3.52,0,0,0,.8-.734,3,3,0,0,0,.512-.956,2.9,2.9,0,0,0,.136-1.075h-2.458v-5.256Z" transform="translate(-1880.495 286.873)" fill="#b89878"></path></g><g id="Grupo_705" data-name="Grupo 705" transform="translate(1548.742 -288.645)"><path id="Caminho_1703" data-name="Caminho 1703" d="M1626.875-219.929v6.793h4.142v.6h-4.846v-7.394Z" transform="translate(-1626.171 220.084)" fill="#fff"></path><path id="Caminho_1704" data-name="Caminho 1704" d="M1649.849-214.447a2.358,2.358,0,0,1,.792.611,2.648,2.648,0,0,1,.487.9,3.53,3.53,0,0,1,.166,1.092,3.531,3.531,0,0,1-.166,1.092,2.65,2.65,0,0,1-.487.9,2.3,2.3,0,0,1-.792.606,2.5,2.5,0,0,1-1.082.223,2.5,2.5,0,0,1-1.082-.223,2.3,2.3,0,0,1-.792-.606,2.639,2.639,0,0,1-.487-.9,3.535,3.535,0,0,1-.166-1.092,3.533,3.533,0,0,1,.166-1.092,2.637,2.637,0,0,1,.487-.9,2.356,2.356,0,0,1,.792-.611,2.457,2.457,0,0,1,1.082-.228A2.457,2.457,0,0,1,1649.849-214.447Zm-1.9.518a1.794,1.794,0,0,0-.586.518,2.367,2.367,0,0,0-.352.73,2.954,2.954,0,0,0-.119.833,2.955,2.955,0,0,0,.119.834,2.361,2.361,0,0,0,.352.73,1.8,1.8,0,0,0,.586.518,1.649,1.649,0,0,0,.818.2,1.653,1.653,0,0,0,.818-.2,1.8,1.8,0,0,0,.585-.518,2.353,2.353,0,0,0,.352-.73,2.968,2.968,0,0,0,.119-.834,2.968,2.968,0,0,0-.119-.833,2.359,2.359,0,0,0-.352-.73,1.8,1.8,0,0,0-.585-.518,1.649,1.649,0,0,0-.818-.2A1.646,1.646,0,0,0,1647.949-213.929Z" transform="translate(-1639.002 216.725)" fill="#fff"></path><path id="Caminho_1705" data-name="Caminho 1705" d="M1672.573-208.544a2.076,2.076,0,0,1-.409.808,1.774,1.774,0,0,1-.73.507,3.043,3.043,0,0,1-1.1.176,3.318,3.318,0,0,1-.787-.093,2.247,2.247,0,0,1-.689-.29,1.715,1.715,0,0,1-.507-.5,1.5,1.5,0,0,1-.233-.73h.652a1.158,1.158,0,0,0,.2.5,1.208,1.208,0,0,0,.362.326,1.6,1.6,0,0,0,.471.181,2.447,2.447,0,0,0,.528.057,1.567,1.567,0,0,0,1.315-.518,2.384,2.384,0,0,0,.4-1.491v-.725h-.021a1.909,1.909,0,0,1-.668.8,1.781,1.781,0,0,1-1.03.3,2.585,2.585,0,0,1-1.1-.212,2.044,2.044,0,0,1-.751-.585,2.383,2.383,0,0,1-.43-.875,4.12,4.12,0,0,1-.135-1.072,3.332,3.332,0,0,1,.16-1.041,2.591,2.591,0,0,1,.466-.859,2.177,2.177,0,0,1,.756-.58,2.39,2.39,0,0,1,1.03-.212,1.876,1.876,0,0,1,.564.083,1.782,1.782,0,0,1,.481.233,2.061,2.061,0,0,1,.388.347,1.593,1.593,0,0,1,.264.414h.021v-.922h.652v4.908A4.058,4.058,0,0,1,1672.573-208.544Zm-1.5-1.424a1.7,1.7,0,0,0,.538-.476,2.1,2.1,0,0,0,.326-.678,2.871,2.871,0,0,0,.109-.787,3.4,3.4,0,0,0-.094-.787,2.268,2.268,0,0,0-.3-.714,1.626,1.626,0,0,0-.533-.518,1.506,1.506,0,0,0-.792-.2,1.569,1.569,0,0,0-.8.191,1.706,1.706,0,0,0-.549.5,2.1,2.1,0,0,0-.316.709,3.38,3.38,0,0,0-.1.813,2.994,2.994,0,0,0,.1.787,2.015,2.015,0,0,0,.321.678,1.665,1.665,0,0,0,.549.476,1.615,1.615,0,0,0,.787.181A1.493,1.493,0,0,0,1671.077-209.968Z" transform="translate(-1652.861 216.725)" fill="#fff"></path><path id="Caminho_1706" data-name="Caminho 1706" d="M1689.565-218.9l1.088-1.46h.808l-1.367,1.46Zm.29.746h.653v5.343h-.653Z" transform="translate(-1666.7 220.359)" fill="#fff"></path><path id="Caminho_1707" data-name="Caminho 1707" d="M1703.909-213.479a1.062,1.062,0,0,0-.305-.368,1.265,1.265,0,0,0-.44-.212,2.017,2.017,0,0,0-.528-.067,2.146,2.146,0,0,0-.44.047,1.364,1.364,0,0,0-.409.155.879.879,0,0,0-.3.285.783.783,0,0,0-.114.435.61.61,0,0,0,.109.368.959.959,0,0,0,.274.254,1.728,1.728,0,0,0,.363.171q.2.068.363.109l.87.2a2.477,2.477,0,0,1,.554.15,1.8,1.8,0,0,1,.487.285,1.4,1.4,0,0,1,.347.435,1.31,1.31,0,0,1,.135.611,1.339,1.339,0,0,1-.2.74,1.611,1.611,0,0,1-.5.5,2.144,2.144,0,0,1-.689.274,3.6,3.6,0,0,1-.756.083,2.454,2.454,0,0,1-1.527-.445,1.9,1.9,0,0,1-.668-1.429h.653a1.285,1.285,0,0,0,.481,1,1.745,1.745,0,0,0,1.093.336,2.446,2.446,0,0,0,.491-.052,1.591,1.591,0,0,0,.471-.176,1.132,1.132,0,0,0,.357-.316.776.776,0,0,0,.14-.471.751.751,0,0,0-.1-.4.861.861,0,0,0-.264-.269,1.69,1.69,0,0,0-.378-.181c-.141-.048-.285-.09-.43-.124l-.839-.186a4.654,4.654,0,0,1-.59-.192,1.871,1.871,0,0,1-.471-.269,1.129,1.129,0,0,1-.316-.393,1.3,1.3,0,0,1-.114-.575,1.282,1.282,0,0,1,.181-.694,1.417,1.417,0,0,1,.471-.466,2.2,2.2,0,0,1,.647-.259,3.141,3.141,0,0,1,.71-.083,2.62,2.62,0,0,1,.751.1,1.738,1.738,0,0,1,.611.321,1.582,1.582,0,0,1,.419.539,1.931,1.931,0,0,1,.176.756h-.652A1.231,1.231,0,0,0,1703.909-213.479Z" transform="translate(-1673.713 216.725)" fill="#fff"></path><path id="Caminho_1708" data-name="Caminho 1708" d="M1722.068-217.089v.549h-1.087v3.6a1.171,1.171,0,0,0,.088.5c.059.121.206.188.44.2a5.093,5.093,0,0,0,.559-.031v.549c-.1,0-.193,0-.29.01s-.193.01-.29.01a1.291,1.291,0,0,1-.912-.254,1.277,1.277,0,0,1-.248-.937v-3.655h-.932v-.549h.932v-1.6h.652v1.6Z" transform="translate(-1685.772 219.295)" fill="#fff"></path><path id="Caminho_1709" data-name="Caminho 1709" d="M1735.84-219.929v1.046h-.652v-1.046Zm0,2.05v5.343h-.652v-5.343Z" transform="translate(-1695.868 220.084)" fill="#fff"></path><path id="Caminho_1710" data-name="Caminho 1710" d="M1748.98-213.784a1.424,1.424,0,0,0-1.015-.342,1.646,1.646,0,0,0-.818.2,1.788,1.788,0,0,0-.585.518,2.357,2.357,0,0,0-.353.73,2.959,2.959,0,0,0-.119.833,2.959,2.959,0,0,0,.119.834,2.352,2.352,0,0,0,.353.73,1.789,1.789,0,0,0,.585.518,1.65,1.65,0,0,0,.818.2,1.447,1.447,0,0,0,.569-.114,1.532,1.532,0,0,0,.477-.316,1.69,1.69,0,0,0,.341-.482,1.78,1.78,0,0,0,.166-.611h.652a2.466,2.466,0,0,1-.715,1.517,2.093,2.093,0,0,1-1.491.544,2.5,2.5,0,0,1-1.082-.223,2.3,2.3,0,0,1-.792-.606,2.641,2.641,0,0,1-.487-.9,3.535,3.535,0,0,1-.166-1.092,3.533,3.533,0,0,1,.166-1.092,2.639,2.639,0,0,1,.487-.9,2.358,2.358,0,0,1,.792-.611,2.457,2.457,0,0,1,1.082-.228,2.325,2.325,0,0,1,1.455.456,1.945,1.945,0,0,1,.709,1.377h-.652A1.8,1.8,0,0,0,1748.98-213.784Z" transform="translate(-1702.422 216.725)" fill="#fff"></path><path id="Caminho_1711" data-name="Caminho 1711" d="M1766.448-213.691a1.537,1.537,0,0,1,.45-.559,1.921,1.921,0,0,1,.668-.321,3.252,3.252,0,0,1,.849-.1,3.754,3.754,0,0,1,.7.067,1.7,1.7,0,0,1,.632.254,1.382,1.382,0,0,1,.456.523,1.888,1.888,0,0,1,.176.875v2.837a.343.343,0,0,0,.383.394.506.506,0,0,0,.207-.041v.549c-.076.014-.143.024-.2.031a1.9,1.9,0,0,1-.223.01.989.989,0,0,1-.4-.067.537.537,0,0,1-.233-.191.712.712,0,0,1-.109-.3,2.521,2.521,0,0,1-.026-.378h-.02a4.372,4.372,0,0,1-.358.461,1.769,1.769,0,0,1-.4.337,1.868,1.868,0,0,1-.508.207,2.777,2.777,0,0,1-.678.072,2.668,2.668,0,0,1-.7-.088,1.554,1.554,0,0,1-.569-.28,1.328,1.328,0,0,1-.383-.487,1.613,1.613,0,0,1-.14-.7,1.383,1.383,0,0,1,.249-.875,1.57,1.57,0,0,1,.657-.482,3.77,3.77,0,0,1,.922-.233q.512-.067,1.041-.13.207-.021.362-.052a.634.634,0,0,0,.259-.109.506.506,0,0,0,.161-.212.929.929,0,0,0,.057-.352,1.194,1.194,0,0,0-.109-.544.862.862,0,0,0-.3-.337,1.216,1.216,0,0,0-.445-.171,3.015,3.015,0,0,0-.544-.047,1.645,1.645,0,0,0-1.015.3,1.154,1.154,0,0,0-.414.947h-.653A2.179,2.179,0,0,1,1766.448-213.691Zm3.262,1.595a.373.373,0,0,1-.238.166,2.381,2.381,0,0,1-.311.072q-.414.073-.854.129a4.665,4.665,0,0,0-.8.171,1.57,1.57,0,0,0-.6.326.779.779,0,0,0-.233.606.952.952,0,0,0,.1.44,1.062,1.062,0,0,0,.264.331,1.138,1.138,0,0,0,.383.212,1.391,1.391,0,0,0,.446.073,2.251,2.251,0,0,0,.714-.114,1.77,1.77,0,0,0,.6-.331,1.617,1.617,0,0,0,.4-.528,1.6,1.6,0,0,0,.15-.7v-.849Z" transform="translate(-1715.583 216.725)" fill="#fff"></path><path id="Caminho_1712" data-name="Caminho 1712" d="M1802.359-219.929v7.394h-.7v-7.394Z" transform="translate(-1738.363 220.084)" fill="#fff"></path><path id="Caminho_1713" data-name="Caminho 1713" d="M1813.907-214.52v.922h.021a1.565,1.565,0,0,1,.662-.782,1.948,1.948,0,0,1,1.046-.3,2.626,2.626,0,0,1,.937.145,1.49,1.49,0,0,1,.606.409,1.531,1.531,0,0,1,.321.647,3.65,3.65,0,0,1,.094.859v3.438h-.653v-3.334a3.08,3.08,0,0,0-.062-.637,1.349,1.349,0,0,0-.218-.513,1.056,1.056,0,0,0-.419-.342,1.547,1.547,0,0,0-.658-.124,1.661,1.661,0,0,0-.7.14,1.516,1.516,0,0,0-.517.383,1.768,1.768,0,0,0-.331.58,2.358,2.358,0,0,0-.13.73v3.117h-.652v-5.343Z" transform="translate(-1745.779 216.725)" fill="#fff"></path><path id="Caminho_1714" data-name="Caminho 1714" d="M1835.594-217.089v.549h-1.087v3.6a1.169,1.169,0,0,0,.088.5q.088.181.44.2a5.091,5.091,0,0,0,.559-.031v.549q-.145,0-.29.01t-.29.01a1.292,1.292,0,0,1-.912-.254,1.277,1.277,0,0,1-.248-.937v-3.655h-.932v-.549h.932v-1.6h.652v1.6Z" transform="translate(-1758.352 219.295)" fill="#fff"></path><path id="Caminho_1715" data-name="Caminho 1715" d="M1848.689-210.942a2,2,0,0,0,.316.678,1.809,1.809,0,0,0,.549.5,1.537,1.537,0,0,0,.8.2,1.586,1.586,0,0,0,1.118-.373,1.96,1.96,0,0,0,.559-.994h.652a2.606,2.606,0,0,1-.761,1.408,2.27,2.27,0,0,1-1.569.5,2.485,2.485,0,0,1-1.093-.223,2.009,2.009,0,0,1-.751-.611,2.647,2.647,0,0,1-.43-.9,4.086,4.086,0,0,1-.14-1.082,3.876,3.876,0,0,1,.14-1.036,2.769,2.769,0,0,1,.43-.906,2.155,2.155,0,0,1,.751-.642,2.312,2.312,0,0,1,1.093-.243,2.189,2.189,0,0,1,1.1.259,2.188,2.188,0,0,1,.741.678,2.808,2.808,0,0,1,.409.963,4.22,4.22,0,0,1,.1,1.1h-4.111A2.889,2.889,0,0,0,1848.689-210.942Zm3.231-1.993a1.965,1.965,0,0,0-.337-.606,1.672,1.672,0,0,0-.528-.425,1.513,1.513,0,0,0-.7-.16,1.538,1.538,0,0,0-.714.16,1.666,1.666,0,0,0-.528.425,2.111,2.111,0,0,0-.347.611,2.973,2.973,0,0,0-.171.709h3.459A2.38,2.38,0,0,0,1851.919-212.935Z" transform="translate(-1767.952 216.725)" fill="#fff"></path><path id="Caminho_1716" data-name="Caminho 1716" d="M1870.008-219.929v7.394h-.653v-7.394Z" transform="translate(-1781.645 220.084)" fill="#fff"></path><path id="Caminho_1717" data-name="Caminho 1717" d="M1881.033-219.929v1.046h-.652v-1.046Zm0,2.05v5.343h-.652v-5.343Z" transform="translate(-1788.694 220.084)" fill="#fff"></path><path id="Caminho_1718" data-name="Caminho 1718" d="M1895.286-208.544a2.081,2.081,0,0,1-.409.808,1.778,1.778,0,0,1-.73.507,3.044,3.044,0,0,1-1.1.176,3.315,3.315,0,0,1-.786-.093,2.253,2.253,0,0,1-.689-.29,1.715,1.715,0,0,1-.507-.5,1.493,1.493,0,0,1-.233-.73h.652a1.158,1.158,0,0,0,.2.5,1.206,1.206,0,0,0,.362.326,1.6,1.6,0,0,0,.471.181,2.453,2.453,0,0,0,.528.057,1.567,1.567,0,0,0,1.315-.518,2.385,2.385,0,0,0,.4-1.491v-.725h-.021a1.91,1.91,0,0,1-.668.8,1.782,1.782,0,0,1-1.03.3,2.584,2.584,0,0,1-1.1-.212,2.046,2.046,0,0,1-.751-.585,2.375,2.375,0,0,1-.429-.875,4.12,4.12,0,0,1-.135-1.072,3.332,3.332,0,0,1,.16-1.041,2.589,2.589,0,0,1,.466-.859,2.177,2.177,0,0,1,.756-.58,2.389,2.389,0,0,1,1.03-.212,1.877,1.877,0,0,1,.564.083,1.781,1.781,0,0,1,.481.233,2.073,2.073,0,0,1,.389.347,1.6,1.6,0,0,1,.264.414h.021v-.922h.652v4.908A4.068,4.068,0,0,1,1895.286-208.544Zm-1.5-1.424a1.707,1.707,0,0,0,.539-.476,2.1,2.1,0,0,0,.326-.678,2.866,2.866,0,0,0,.109-.787,3.42,3.42,0,0,0-.093-.787,2.271,2.271,0,0,0-.3-.714,1.625,1.625,0,0,0-.533-.518,1.506,1.506,0,0,0-.792-.2,1.568,1.568,0,0,0-.8.191,1.706,1.706,0,0,0-.549.5,2.1,2.1,0,0,0-.316.709,3.381,3.381,0,0,0-.1.813,2.994,2.994,0,0,0,.1.787,2.02,2.02,0,0,0,.321.678,1.662,1.662,0,0,0,.549.476,1.614,1.614,0,0,0,.786.181A1.493,1.493,0,0,0,1893.79-209.968Z" transform="translate(-1795.248 216.725)" fill="#fff"></path><path id="Caminho_1719" data-name="Caminho 1719" d="M1913.059-210.942a2,2,0,0,0,.316.678,1.815,1.815,0,0,0,.549.5,1.537,1.537,0,0,0,.8.2,1.587,1.587,0,0,0,1.119-.373,1.961,1.961,0,0,0,.559-.994h.652a2.605,2.605,0,0,1-.761,1.408,2.27,2.27,0,0,1-1.569.5,2.485,2.485,0,0,1-1.092-.223,2.008,2.008,0,0,1-.75-.611,2.658,2.658,0,0,1-.43-.9,4.1,4.1,0,0,1-.14-1.082,3.891,3.891,0,0,1,.14-1.036,2.782,2.782,0,0,1,.43-.906,2.153,2.153,0,0,1,.75-.642,2.311,2.311,0,0,1,1.092-.243,2.189,2.189,0,0,1,1.1.259,2.187,2.187,0,0,1,.741.678,2.814,2.814,0,0,1,.409.963,4.262,4.262,0,0,1,.1,1.1h-4.111A2.889,2.889,0,0,0,1913.059-210.942Zm3.231-1.993a1.967,1.967,0,0,0-.337-.606,1.67,1.67,0,0,0-.528-.425,1.513,1.513,0,0,0-.7-.16,1.539,1.539,0,0,0-.714.16,1.671,1.671,0,0,0-.528.425,2.111,2.111,0,0,0-.347.611,2.991,2.991,0,0,0-.171.709h3.459A2.364,2.364,0,0,0,1916.29-212.935Z" transform="translate(-1809.106 216.725)" fill="#fff"></path><path id="Caminho_1720" data-name="Caminho 1720" d="M1934.323-214.52v.922h.021a1.564,1.564,0,0,1,.663-.782,1.947,1.947,0,0,1,1.046-.3,2.627,2.627,0,0,1,.937.145,1.487,1.487,0,0,1,.606.409,1.526,1.526,0,0,1,.321.647,3.65,3.65,0,0,1,.094.859v3.438h-.652v-3.334a3.079,3.079,0,0,0-.062-.637,1.347,1.347,0,0,0-.218-.513,1.056,1.056,0,0,0-.419-.342,1.547,1.547,0,0,0-.657-.124,1.661,1.661,0,0,0-.7.14,1.514,1.514,0,0,0-.517.383,1.764,1.764,0,0,0-.332.58,2.369,2.369,0,0,0-.13.73v3.117h-.652v-5.343Z" transform="translate(-1822.764 216.725)" fill="#fff"></path><path id="Caminho_1721" data-name="Caminho 1721" d="M1956.01-217.089v.549h-1.087v3.6a1.17,1.17,0,0,0,.088.5q.088.181.44.2a5.09,5.09,0,0,0,.559-.031v.549q-.145,0-.29.01t-.29.01a1.291,1.291,0,0,1-.912-.254,1.278,1.278,0,0,1-.248-.937v-3.655h-.932v-.549h.932v-1.6h.652v1.6Z" transform="translate(-1835.338 219.295)" fill="#fff"></path><path id="Caminho_1722" data-name="Caminho 1722" d="M1969.1-210.942a2,2,0,0,0,.316.678,1.812,1.812,0,0,0,.549.5,1.537,1.537,0,0,0,.8.2,1.587,1.587,0,0,0,1.118-.373,1.96,1.96,0,0,0,.559-.994h.653a2.606,2.606,0,0,1-.761,1.408,2.27,2.27,0,0,1-1.569.5,2.484,2.484,0,0,1-1.093-.223,2.01,2.01,0,0,1-.75-.611,2.656,2.656,0,0,1-.43-.9,4.081,4.081,0,0,1-.139-1.082,3.871,3.871,0,0,1,.139-1.036,2.78,2.78,0,0,1,.43-.906,2.156,2.156,0,0,1,.75-.642,2.311,2.311,0,0,1,1.093-.243,2.19,2.19,0,0,1,1.1.259,2.189,2.189,0,0,1,.741.678,2.806,2.806,0,0,1,.408.963,4.2,4.2,0,0,1,.1,1.1h-4.111A2.889,2.889,0,0,0,1969.1-210.942Zm3.231-1.993a1.966,1.966,0,0,0-.336-.606,1.676,1.676,0,0,0-.529-.425,1.514,1.514,0,0,0-.7-.16,1.537,1.537,0,0,0-.715.16,1.666,1.666,0,0,0-.528.425,2.106,2.106,0,0,0-.347.611,2.991,2.991,0,0,0-.171.709h3.459A2.38,2.38,0,0,0,1972.335-212.935Z" transform="translate(-1844.938 216.725)" fill="#fff"></path></g></g></g></svg>