<svg xmlns="http://www.w3.org/2000/svg" width="244.001" height="75.589" viewBox="0 0 244.001 75.589"><g id="premio-dialogo-7" transform="translate(0)"><g id="Grupo_834" data-name="Grupo 834" transform="translate(0 0)"><g id="Grupo_832" data-name="Grupo 832" transform="translate(0 0)"><path id="Caminho_1849" data-name="Caminho 1849" d="M103.563-87.9a8.967,8.967,0,0,1-.814-.7,8.246,8.246,0,0,1-2.582-7.072c2.92-.039,5.244,1.609,7.231,5.2-.04-.536-.02-.993-.06-1.391-.139-.974-.278-1.927-.417-2.96-2.761,0-5.284-.576-7.111-2.741a8.042,8.042,0,0,1-1.967-4.807,9.074,9.074,0,0,1,8.144,3.3c-.338-.934-.676-1.887-1.013-2.88-2.761,0-5.284-.5-7.171-2.662a8.43,8.43,0,0,1-2.046-4.887,11.186,11.186,0,0,1,5.522.835c-.517-.7-1.053-1.391-1.569-2.086-5.165,1.787-9.117.357-11.243-4.053,1.192-.953,2.583-1.152,6.277-.755a4.088,4.088,0,0,0-3.377-1.51,7.775,7.775,0,0,1-8.1-6.059,7.331,7.331,0,0,1-.06-.754,8.366,8.366,0,0,1,6.277,1.152c1.927,1.252,2.8,3.238,3.714,5.264A9,9,0,0,1,93.551-126a8.125,8.125,0,0,1,4.033,4.966,8.8,8.8,0,0,1-.835,6.3c.537.556,1.053,1.053,1.709,1.709a8.077,8.077,0,0,1,1.688-8.224c2.9,2.205,4.728,6.754,1.112,11.7.179.278.377.576.556.894.179.238.4.477.715.953a9.608,9.608,0,0,1,.854-4.628,8.907,8.907,0,0,1,3.019-3.357c1.649,1.986,1.887,3.913,1.013,8.224.636-.477,1.133-.914,1.669-1.271a20.846,20.846,0,0,1,1.887-1.033,8.5,8.5,0,0,1,.1,6.436,8.551,8.551,0,0,1-4.509,4.43c.2.795.377,1.569.636,2.6a8.38,8.38,0,0,1,5.7-5.88c1.867,3.754-.139,7.965-4.926,10.429,0,.258-.04.576-.04.894a3.6,3.6,0,0,0,.08,1.013,9.539,9.539,0,0,1,3.118-3.357,8.016,8.016,0,0,1,4.449-1.232,8.555,8.555,0,0,1-2.066,5.979,8.764,8.764,0,0,1-5.642,2.642c-.139,1.013-.278,2.007-.457,3.278a8.213,8.213,0,0,1,8.522-3.636,8.039,8.039,0,0,1-3.159,5.522,8.786,8.786,0,0,1-6.158,1.529c-.3.795-.556,1.55-.914,2.583a9.013,9.013,0,0,1,3.894-1.947,7.936,7.936,0,0,1,4.032.179c-.477,4.132-4.668,6.734-9.833,6.079-.338.556-.7,1.172-1.232,2.006a9.445,9.445,0,0,1,4.271-1.252,8.461,8.461,0,0,1,4.053.954c-1.311,3.437-5.6,6.178-10.965,3.992-.417.437-.874.954-1.529,1.709a8.278,8.278,0,0,1,8.1,1.251c-2.185,3.715-6.715,4.47-11.5,1.907-.735.536-1.529,1.072-2.3,1.668a8.724,8.724,0,0,1,7.866,3.1c-3.437,3.178-7.688,2.9-11.8-.735-.735.338-1.549.7-2.523,1.132a8.415,8.415,0,0,1,7.012,4.946,7.764,7.764,0,0,1-10.17-2.344,1.661,1.661,0,0,0-2.066-.894,3.083,3.083,0,0,1-.735.079c-.914.02-.974-.119-.814-1.033.139-.794.159-1.609.338-2.4a7.716,7.716,0,0,1,7.508-5.78,8.99,8.99,0,0,1-2.86,7.33c1.093-.437,2.185-.894,3.4-1.371C86.7-62.89,88.268-66.446,93-68.432c1.152,1.768.934,4.608-.457,7.568A13.6,13.6,0,0,0,95.6-63.109a8.415,8.415,0,0,1-1.252-7.171,8,8,0,0,1,3.4-4.39,8.011,8.011,0,0,1,.974,8.2.563.563,0,0,0,.238.08c.814-1.033,1.649-2.066,2.523-3.2-1.907-1.986-3.277-4.132-3.039-6.952a8.268,8.268,0,0,1,2.245-4.927,8.6,8.6,0,0,1,3.079,7.668,18.424,18.424,0,0,0,1.887-3.953,8.111,8.111,0,0,1-4.966-6.237,8.364,8.364,0,0,1,.794-4.946c.716.4,1.371.755,2.026,1.112,1.808,1.708,3.158,3.675,3.1,6.357a19.47,19.47,0,0,0,.755-4.887C105.987-86.906,104.775-87.4,103.563-87.9Zm1.867-14.163c.3-1.331.556-2.6.874-3.933-.636.636-1.231,1.212-1.787,1.788C104.835-103.473,105.113-102.817,105.43-102.062Z" transform="translate(128.062 126.158)" fill="#fbb03b"></path><path id="Caminho_1850" data-name="Caminho 1850" d="M5.238-109.946a9.446,9.446,0,0,1,3.914,2.722c-1.55-3.019-1.192-5.86.516-8.8a8.293,8.293,0,0,1,3.973,8.1c.536-.755.953-1.331,1.39-1.946-1.609-2.126-2.542-4.43-1.927-7.132a8.67,8.67,0,0,1,2.781-4.549c2.026,1.709,2.7,4.589,1.907,8.4a10.627,10.627,0,0,0,1.41-1.55,1.506,1.506,0,0,0-.04-.974,18.174,18.174,0,0,1-.735-2.8c-.357-3.437,1.192-5.939,4.132-7.807a8.782,8.782,0,0,1,.536,8.4,6.073,6.073,0,0,0,.576-1.053,7.76,7.76,0,0,1,2.84-3.933c1.947-1.47,4.112-1.629,6.456-1.41a4.857,4.857,0,0,1-.814,2.682,7.637,7.637,0,0,1-7.548,4.251,3.046,3.046,0,0,0-2.384.755c-.3.3-.655.516-.954.834a9.362,9.362,0,0,1,6.556.457,8.091,8.091,0,0,1-4.648,4.569A8.194,8.194,0,0,1,16.6-111.1c-.6.775-1.172,1.51-1.748,2.244a9.652,9.652,0,0,1,5.542-.913,7.64,7.64,0,0,1-2.86,5.76,9.177,9.177,0,0,1-6.217,1.808c-.357.993-.716,2.007-1.093,3a10.924,10.924,0,0,1,3.695-2.821,8.265,8.265,0,0,1,4.51-.655,7.914,7.914,0,0,1-2.881,5.7,8.6,8.6,0,0,1-6.2,1.827c-.179,1.53-.357,2.98-.5,4.45A8.483,8.483,0,0,1,16-96.08c.378,2.285.02,4.569-2.423,7.39.516-.219.854-.338,1.211-.457a8.028,8.028,0,0,1-4.052,11.124c.536,1.271,1.112,2.582,1.668,3.874h.259a8.386,8.386,0,0,1,2.98-7.608,8.172,8.172,0,0,1,2.205,6.1c-.1,2.324-1.331,4.092-3,5.78.914,1.152,1.788,2.225,2.662,3.357a8.8,8.8,0,0,1,1.072-8.4C22.54-72.5,23.334-68.409,20.871-63.3c.934.735,1.927,1.489,2.9,2.225l.239-.119a8.867,8.867,0,0,1-.835-7.509,7.931,7.931,0,0,1,4.906,3.894c1.152,2.066.854,4.211.5,6.455,1.212.5,2.384.994,3.575,1.49a8.871,8.871,0,0,1-3.019-7.409,5.553,5.553,0,0,1,1.152,0A7.888,7.888,0,0,1,36.9-56.828a3.908,3.908,0,0,1-.02.834c-.158.576-.477,1.053-1.192.854-.179-.02-.338,0-.477-.02a1.447,1.447,0,0,0-1.709.735,7.581,7.581,0,0,1-4.966,3.377,8.3,8.3,0,0,1-5.383-.775,8.328,8.328,0,0,1,7.171-4.967c-1.053-.456-1.827-.814-2.662-1.172-1.927,1.927-4.132,3.158-6.893,2.94a7.889,7.889,0,0,1-4.887-2.126,8.693,8.693,0,0,1,7.727-3.2c-.676-.516-1.371-1.053-2.165-1.629a8.59,8.59,0,0,1-7.39,1.292,7.9,7.9,0,0,1-4.211-3.159,8.54,8.54,0,0,1,8.124-1.311c-.556-.636-.974-1.133-1.47-1.688-2.424.974-4.867,1.291-7.31.06a8.743,8.743,0,0,1-3.754-3.953,8.192,8.192,0,0,1,8.422.338c-.5-.854-.854-1.43-1.251-2.106-2.682.417-5.244.159-7.39-1.688A8.545,8.545,0,0,1,2.6-78.421,8.137,8.137,0,0,1,10.6-76.852c-.3-.913-.556-1.708-.854-2.6-2.662.238-5.165-.2-7.092-2.225A7.506,7.506,0,0,1,.431-86.247c2.145-.894,6.3.06,8.5,3.456-.179-1.172-.318-2.145-.477-3.238-2.9-.4-5.344-1.55-6.754-4.231a7.464,7.464,0,0,1-.894-4.47c3.338.259,5.86,1.59,7.43,4.768.1-.775.179-1.331.258-2.006C5.913-93.041,3.808-94.65,3.053-97.51a8.009,8.009,0,0,1,.159-4.827,7.813,7.813,0,0,1,5.86,5.78c.139-.536.238-.934.357-1.311.1-.4.179-.775.3-1.252-2.443-1.232-4.409-2.96-4.966-5.78A8.492,8.492,0,0,1,5.238-109.946Zm7.509,21.871c-1.251.477-2.483.953-3.854,1.51.238,1.549.457,3.039.676,4.549A9.282,9.282,0,0,1,12.747-88.075ZM10.065-106.39a1.218,1.218,0,0,0-.139.2c.318,1.271.636,2.542.953,3.754.934-1.966.934-1.966-.576-3.535A1.091,1.091,0,0,1,10.065-106.39Z" transform="translate(-0.431 126.274)" fill="#fbb03b"></path></g></g><text id="Destaque_Black_Friday_Magazine_Luiza_2019" data-name="Destaque Black Friday Magazine Luiza 2019" transform="translate(121.751 35.058)" fill="#fbfbfb" font-size="15" font-family="Arial-BoldMT, Arial" font-weight="700"><tspan x="-80.449" y="0">Destaque Black Friday</tspan><tspan x="-73.777" y="17">Magazine Luiza 2019</tspan></text></g></svg>